<svg xmlns="http://www.w3.org/2000/svg" xmlns:xlink="http://www.w3.org/1999/xlink" width="500" zoomAndPan="magnify" viewBox="0 0 375 374.999991" height="500" preserveAspectRatio="xMidYMid meet" version="1.0"><defs><g/></defs><rect x="-37.5" width="450" fill="#ffffff" y="-37.499999" height="449.999989" fill-opacity="1"/><rect x="-37.5" width="450" fill="#000000" y="-37.499999" height="449.999989" fill-opacity="1"/><g fill="#ffffff" fill-opacity="1"><g transform="translate(43.23047, 230.13585)"><g><path d="M 4.8125 -2.53125 L 15.859375 -4.328125 L 15.859375 -91.828125 L 4.8125 -93.5 L 4.8125 -96.15625 L 41.46875 -96.15625 C 50.113281 -96.15625 57 -95.351562 62.125 -93.75 C 67.257812 -92.144531 70.988281 -89.71875 73.3125 -86.46875 C 75.632812 -83.226562 76.796875 -78.960938 76.796875 -73.671875 C 76.796875 -62.140625 69.503906 -54.769531 54.921875 -51.5625 L 54.921875 -50.953125 C 63.816406 -49.753906 70.726562 -47.109375 75.65625 -43.015625 C 80.582031 -38.929688 83.046875 -33.242188 83.046875 -25.953125 C 83.046875 -17.140625 79.820312 -10.609375 73.375 -6.359375 C 66.925781 -2.117188 58.210938 0 47.234375 0 L 4.8125 0 Z M 42.421875 -51.921875 C 48.835938 -51.921875 53.765625 -53.722656 57.203125 -57.328125 C 60.648438 -60.929688 62.375 -66.0625 62.375 -72.71875 L 62.375 -73.4375 C 62.375 -86.570312 55.40625 -93.140625 41.46875 -93.140625 L 29.078125 -93.140625 L 29.078125 -51.921875 Z M 47.234375 -2.890625 C 54.046875 -2.890625 59.332031 -4.867188 63.09375 -8.828125 C 66.863281 -12.796875 68.75 -18.46875 68.75 -25.84375 L 68.75 -27.15625 C 68.75 -34.445312 66.882812 -39.894531 63.15625 -43.5 C 59.425781 -47.113281 54.117188 -48.921875 47.234375 -48.921875 L 29.078125 -48.921875 L 29.078125 -2.890625 Z M 47.234375 -2.890625 "/></g></g></g><g fill="#ffffff" fill-opacity="1"><g transform="translate(236.479897, 230.13585)"><g><path d="M 54.8125 1.203125 L 18.984375 -91.828125 L 18.984375 -7.328125 L 30.53125 -2.53125 L 30.53125 0 L 4.8125 0 L 4.8125 -2.53125 L 16.109375 -7.328125 L 16.109375 -91.828125 L 5.046875 -93.5 L 5.046875 -96.15625 L 31.609375 -96.15625 L 61.78125 -18.984375 L 92.546875 -96.15625 L 116.828125 -96.15625 L 116.828125 -93.5 L 105.765625 -91.828125 L 105.765625 -4.328125 L 116.828125 -2.53125 L 116.828125 0 L 81.484375 0 L 81.484375 -2.53125 L 92.546875 -4.328125 L 92.546875 -88.21875 L 56.96875 1.203125 Z M 54.8125 1.203125 "/></g></g></g><g fill="#ffffff" fill-opacity="1"><g transform="translate(145.494019, 220.368662)"><g><path d="M 46.390625 -79.921875 L 67.0625 -25.359375 C 67.78125 -23.359375 68.421875 -21.675781 68.984375 -20.3125 C 69.546875 -18.945312 70.003906 -17.785156 70.359375 -16.828125 C 70.722656 -15.867188 71.046875 -15.085938 71.328125 -14.484375 C 71.609375 -13.878906 71.867188 -13.335938 72.109375 -12.859375 C 73.078125 -10.859375 74.0625 -9.316406 75.0625 -8.234375 C 76.0625 -7.148438 77.0625 -6.347656 78.0625 -5.828125 C 79.0625 -5.304688 80.082031 -5.003906 81.125 -4.921875 C 82.164062 -4.847656 83.207031 -4.8125 84.25 -4.8125 L 84.859375 -4.328125 L 85.21875 0.234375 L 84.96875 0.71875 C 84.40625 0.71875 83.5625 0.675781 82.4375 0.59375 C 81.320312 0.519531 80.160156 0.441406 78.953125 0.359375 C 77.753906 0.273438 76.613281 0.191406 75.53125 0.109375 C 74.457031 0.0351562 73.640625 0 73.078125 0 L 64.296875 0 C 63.734375 0 62.8125 0.0351562 61.53125 0.109375 C 60.25 0.191406 58.90625 0.273438 57.5 0.359375 C 56.101562 0.441406 54.765625 0.519531 53.484375 0.59375 C 52.203125 0.675781 51.28125 0.71875 50.71875 0.71875 L 50.484375 0.234375 L 50.84375 -4.328125 L 51.3125 -4.8125 C 53.394531 -4.8125 54.976562 -5.070312 56.0625 -5.59375 C 57.144531 -6.113281 57.6875 -7.535156 57.6875 -9.859375 C 57.6875 -11.140625 57.46875 -12.960938 57.03125 -15.328125 C 56.59375 -17.691406 55.570312 -20.632812 53.96875 -24.15625 L 51.4375 -29.921875 L 30.40625 -29.921875 L 28 -24.15625 C 26.5625 -20.632812 25.476562 -17.628906 24.75 -15.140625 C 24.03125 -12.660156 23.671875 -10.898438 23.671875 -9.859375 C 23.671875 -7.929688 24.070312 -6.609375 24.875 -5.890625 C 25.675781 -5.171875 27.117188 -4.8125 29.203125 -4.8125 L 29.8125 -4.328125 L 30.171875 0.234375 L 29.921875 0.71875 C 29.359375 0.71875 28.476562 0.675781 27.28125 0.59375 C 26.082031 0.519531 24.820312 0.441406 23.5 0.359375 C 22.175781 0.273438 20.910156 0.191406 19.703125 0.109375 C 18.503906 0.0351562 17.625 0 17.0625 0 L 9.96875 0 C 9.414062 0 8.578125 0.0351562 7.453125 0.109375 C 6.328125 0.191406 5.160156 0.273438 3.953125 0.359375 C 2.753906 0.441406 1.613281 0.519531 0.53125 0.59375 C -0.539062 0.675781 -1.359375 0.71875 -1.921875 0.71875 L -2.046875 0.234375 L -1.796875 -4.328125 L -1.203125 -4.8125 C -0.160156 -4.8125 0.878906 -4.890625 1.921875 -5.046875 C 2.960938 -5.203125 4.003906 -5.5625 5.046875 -6.125 C 6.085938 -6.6875 7.109375 -7.46875 8.109375 -8.46875 C 9.109375 -9.46875 10.128906 -10.769531 11.171875 -12.375 C 11.410156 -12.851562 11.769531 -13.59375 12.25 -14.59375 C 12.738281 -15.601562 13.503906 -17.390625 14.546875 -19.953125 C 15.585938 -22.515625 17.03125 -26.160156 18.875 -30.890625 C 20.71875 -35.617188 23.160156 -41.90625 26.203125 -49.75 L 36.53125 -76.3125 L 45.078125 -79.921875 Z M 32.453125 -38.703125 L 48.1875 -38.703125 L 40.5 -59.96875 Z M 32.453125 -38.703125 "/></g></g></g><path stroke-linecap="butt" transform="matrix(0.75, 0.00000000000000016, -0.00000000000000016, 0.75, 57.679374, 162.364252)" fill="none" stroke-linejoin="miter" d="M 0.00041865 27.998708 L 400.000445 27.998708 " stroke="#000000" stroke-width="56" stroke-opacity="1" stroke-miterlimit="4"/><g fill="#ffffff" fill-opacity="1"><g transform="translate(67.284965, 177.364251)"><g><path d="M 0.53125 -0.28125 L 1.734375 -0.46875 L 1.734375 -10.078125 L 0.53125 -10.265625 L 0.53125 -10.546875 L 4.546875 -10.546875 C 5.492188 -10.546875 6.25 -10.457031 6.8125 -10.28125 C 7.375 -10.101562 7.78125 -9.835938 8.03125 -9.484375 C 8.289062 -9.128906 8.421875 -8.660156 8.421875 -8.078125 C 8.421875 -6.816406 7.625 -6.007812 6.03125 -5.65625 L 6.03125 -5.59375 C 7 -5.457031 7.753906 -5.164062 8.296875 -4.71875 C 8.835938 -4.269531 9.109375 -3.644531 9.109375 -2.84375 C 9.109375 -1.875 8.753906 -1.15625 8.046875 -0.6875 C 7.335938 -0.226562 6.382812 0 5.1875 0 L 0.53125 0 Z M 4.65625 -5.703125 C 5.351562 -5.703125 5.890625 -5.898438 6.265625 -6.296875 C 6.648438 -6.691406 6.84375 -7.253906 6.84375 -7.984375 L 6.84375 -8.0625 C 6.84375 -9.5 6.078125 -10.21875 4.546875 -10.21875 L 3.1875 -10.21875 L 3.1875 -5.703125 Z M 5.1875 -0.3125 C 5.925781 -0.3125 6.503906 -0.53125 6.921875 -0.96875 C 7.335938 -1.40625 7.546875 -2.023438 7.546875 -2.828125 L 7.546875 -2.984375 C 7.546875 -3.785156 7.335938 -4.382812 6.921875 -4.78125 C 6.515625 -5.175781 5.9375 -5.375 5.1875 -5.375 L 3.1875 -5.375 L 3.1875 -0.3125 Z M 5.1875 -0.3125 "/></g></g></g><g fill="#ffffff" fill-opacity="1"><g transform="translate(87.657496, 177.364251)"><g><path d="M 0.53125 0 L 0.53125 -0.28125 L 1.734375 -0.46875 L 1.734375 -10.078125 L 0.53125 -10.265625 L 0.53125 -10.546875 L 4.40625 -10.546875 L 4.40625 -10.265625 L 3.1875 -10.078125 L 3.1875 -0.3125 L 7.140625 -0.3125 L 8.21875 -3.21875 L 8.578125 -3.21875 L 8.578125 0 Z M 0.53125 0 "/></g></g></g><g fill="#ffffff" fill-opacity="1"><g transform="translate(107.107175, 177.364251)"><g><path d="M -0.375 0 L -0.375 -0.28125 L 0.921875 -0.796875 L 4.734375 -10.8125 L 4.9375 -10.8125 L 8.546875 -0.46875 L 9.765625 -0.28125 L 9.765625 0 L 5.875 0 L 5.875 -0.28125 L 6.96875 -0.453125 L 5.84375 -3.578125 L 2.328125 -3.578125 L 1.265625 -0.796875 L 2.453125 -0.28125 L 2.453125 0 Z M 2.4375 -3.84375 L 5.75 -3.84375 L 4.171875 -8.5 Z M 2.4375 -3.84375 "/></g></g></g><g fill="#ffffff" fill-opacity="1"><g transform="translate(127.136932, 177.364251)"><g><path d="M 5.484375 0.265625 C 4.523438 0.265625 3.6875 0.03125 2.96875 -0.4375 C 2.25 -0.90625 1.691406 -1.554688 1.296875 -2.390625 C 0.910156 -3.222656 0.71875 -4.1875 0.71875 -5.28125 C 0.71875 -6.363281 0.914062 -7.320312 1.3125 -8.15625 C 1.707031 -9 2.269531 -9.648438 3 -10.109375 C 3.738281 -10.578125 4.585938 -10.8125 5.546875 -10.8125 C 5.929688 -10.8125 6.316406 -10.742188 6.703125 -10.609375 C 7.097656 -10.484375 7.453125 -10.300781 7.765625 -10.0625 L 8.65625 -10.8125 L 8.921875 -10.8125 L 8.921875 -7.546875 L 8.65625 -7.546875 L 7.828125 -9.59375 C 7.523438 -9.875 7.164062 -10.097656 6.75 -10.265625 C 6.34375 -10.429688 5.941406 -10.515625 5.546875 -10.515625 C 4.929688 -10.515625 4.390625 -10.351562 3.921875 -10.03125 C 3.453125 -9.71875 3.082031 -9.253906 2.8125 -8.640625 C 2.550781 -8.035156 2.421875 -7.316406 2.421875 -6.484375 L 2.421875 -4.078125 C 2.421875 -3.242188 2.546875 -2.519531 2.796875 -1.90625 C 3.054688 -1.300781 3.414062 -0.835938 3.875 -0.515625 C 4.332031 -0.203125 4.867188 -0.046875 5.484375 -0.046875 C 5.929688 -0.046875 6.378906 -0.144531 6.828125 -0.34375 C 7.273438 -0.539062 7.648438 -0.804688 7.953125 -1.140625 L 8.71875 -3.25 L 9 -3.25 L 9 0.125 L 8.71875 0.125 L 7.765625 -0.546875 C 7.453125 -0.285156 7.09375 -0.0859375 6.6875 0.046875 C 6.28125 0.191406 5.878906 0.265625 5.484375 0.265625 Z M 5.484375 0.265625 "/></g></g></g><g fill="#ffffff" fill-opacity="1"><g transform="translate(147.509463, 177.364251)"><g><path d="M 0.53125 0 L 0.53125 -0.28125 L 1.734375 -0.46875 L 1.734375 -10.078125 L 0.53125 -10.265625 L 0.53125 -10.546875 L 4.40625 -10.546875 L 4.40625 -10.265625 L 3.1875 -10.078125 L 3.1875 -5.328125 L 7.484375 -9.703125 L 6.046875 -10.265625 L 6.046875 -10.546875 L 9.09375 -10.546875 L 9.09375 -10.265625 L 8 -9.703125 L 5.015625 -6.703125 L 9.234375 -0.46875 L 10.125 -0.28125 L 10.125 0 L 6.234375 0 L 6.234375 -0.28125 L 7.4375 -0.46875 L 3.984375 -5.671875 L 3.1875 -4.859375 L 3.1875 -0.46875 L 4.40625 -0.28125 L 4.40625 0 Z M 0.53125 0 "/></g></g></g><g fill="#ffffff" fill-opacity="1"><g transform="translate(167.789708, 177.364251)"><g/></g></g><g fill="#ffffff" fill-opacity="1"><g transform="translate(181.491341, 177.364251)"><g><path d="M -0.375 0 L -0.375 -0.28125 L 0.921875 -0.796875 L 4.734375 -10.8125 L 4.9375 -10.8125 L 8.546875 -0.46875 L 9.765625 -0.28125 L 9.765625 0 L 5.875 0 L 5.875 -0.28125 L 6.96875 -0.453125 L 5.84375 -3.578125 L 2.328125 -3.578125 L 1.265625 -0.796875 L 2.453125 -0.28125 L 2.453125 0 Z M 2.4375 -3.84375 L 5.75 -3.84375 L 4.171875 -8.5 Z M 2.4375 -3.84375 "/></g></g></g><g fill="#ffffff" fill-opacity="1"><g transform="translate(201.521099, 177.364251)"><g><path d="M 5.296875 0.265625 C 4.003906 0.265625 3.054688 -0.0195312 2.453125 -0.59375 C 1.859375 -1.175781 1.5625 -1.941406 1.5625 -2.890625 L 1.5625 -10.078125 L 0.359375 -10.265625 L 0.359375 -10.546875 L 4.234375 -10.546875 L 4.234375 -10.265625 L 3.015625 -10.078125 L 3.015625 -2.890625 C 3.015625 -2.023438 3.253906 -1.363281 3.734375 -0.90625 C 4.222656 -0.445312 4.960938 -0.21875 5.953125 -0.21875 C 7.816406 -0.21875 8.75 -1.109375 8.75 -2.890625 L 8.75 -9.75 L 7.515625 -10.265625 L 7.515625 -10.546875 L 10.328125 -10.546875 L 10.328125 -10.265625 L 9.0625 -9.75 L 9.0625 -2.890625 C 9.0625 -1.835938 8.765625 -1.046875 8.171875 -0.515625 C 7.585938 0.00390625 6.628906 0.265625 5.296875 0.265625 Z M 5.296875 0.265625 "/></g></g></g><g fill="#ffffff" fill-opacity="1"><g transform="translate(222.737379, 177.364251)"><g><path d="M 0.53125 -0.28125 L 1.734375 -0.46875 L 1.734375 -10.078125 L 0.53125 -10.265625 L 0.53125 -10.546875 L 5.578125 -10.546875 C 6.546875 -10.546875 7.40625 -10.328125 8.15625 -9.890625 C 8.90625 -9.460938 9.488281 -8.847656 9.90625 -8.046875 C 10.332031 -7.253906 10.546875 -6.332031 10.546875 -5.28125 C 10.546875 -4.21875 10.332031 -3.289062 9.90625 -2.5 C 9.488281 -1.707031 8.898438 -1.09375 8.140625 -0.65625 C 7.390625 -0.21875 6.535156 0 5.578125 0 L 0.53125 0 Z M 5.578125 -0.3125 C 6.222656 -0.3125 6.789062 -0.460938 7.28125 -0.765625 C 7.78125 -1.066406 8.171875 -1.515625 8.453125 -2.109375 C 8.734375 -2.703125 8.875 -3.421875 8.875 -4.265625 L 8.875 -6.296875 C 8.875 -7.140625 8.734375 -7.851562 8.453125 -8.4375 C 8.171875 -9.03125 7.78125 -9.472656 7.28125 -9.765625 C 6.789062 -10.066406 6.222656 -10.21875 5.578125 -10.21875 L 3.1875 -10.21875 L 3.1875 -0.3125 Z M 5.578125 -0.3125 "/></g></g></g><g fill="#ffffff" fill-opacity="1"><g transform="translate(244.546921, 177.364251)"><g><path d="M 0.53125 0 L 0.53125 -0.28125 L 1.734375 -0.46875 L 1.734375 -10.078125 L 0.53125 -10.265625 L 0.53125 -10.546875 L 4.40625 -10.546875 L 4.40625 -10.265625 L 3.1875 -10.078125 L 3.1875 -0.46875 L 4.40625 -0.28125 L 4.40625 0 Z M 0.53125 0 "/></g></g></g><g fill="#ffffff" fill-opacity="1"><g transform="translate(260.028338, 177.364251)"><g><path d="M 0.53125 0 L 0.53125 -0.28125 L 1.734375 -0.46875 L 1.734375 -10.078125 L 0.53125 -10.265625 L 0.53125 -10.546875 L 8.46875 -10.546875 L 8.46875 -7.53125 L 8.109375 -7.53125 L 7.09375 -10.21875 L 3.1875 -10.21875 L 3.1875 -5.46875 L 4.90625 -5.46875 L 5.6875 -7.390625 L 6.03125 -7.390625 L 6.03125 -3.21875 L 5.6875 -3.21875 L 4.890625 -5.15625 L 3.1875 -5.15625 L 3.1875 -0.3125 L 7.328125 -0.3125 L 8.40625 -3.21875 L 8.75 -3.21875 L 8.75 0 Z M 0.53125 0 "/></g></g></g><g fill="#ffffff" fill-opacity="1"><g transform="translate(280.084452, 177.364251)"><g><path d="M 0.5625 0 L 0.5625 -0.28125 L 1.796875 -0.796875 L 1.796875 -9.75 L 0.5625 -10.265625 L 0.5625 -10.546875 L 3.015625 -10.546875 L 8.703125 -2.578125 L 8.703125 -9.75 L 7.484375 -10.265625 L 7.484375 -10.546875 L 10.28125 -10.546875 L 10.28125 -10.265625 L 9.03125 -9.75 L 9.03125 0 L 8.703125 0 L 2.125 -9.25 L 2.125 -0.796875 L 3.390625 -0.28125 L 3.390625 0 Z M 0.5625 0 "/></g></g></g><g fill="#ffffff" fill-opacity="1"><g transform="translate(301.366662, 177.364251)"><g><path d="M 5.484375 0.265625 C 4.523438 0.265625 3.6875 0.03125 2.96875 -0.4375 C 2.25 -0.90625 1.691406 -1.554688 1.296875 -2.390625 C 0.910156 -3.222656 0.71875 -4.1875 0.71875 -5.28125 C 0.71875 -6.363281 0.914062 -7.320312 1.3125 -8.15625 C 1.707031 -9 2.269531 -9.648438 3 -10.109375 C 3.738281 -10.578125 4.585938 -10.8125 5.546875 -10.8125 C 5.929688 -10.8125 6.316406 -10.742188 6.703125 -10.609375 C 7.097656 -10.484375 7.453125 -10.300781 7.765625 -10.0625 L 8.65625 -10.8125 L 8.921875 -10.8125 L 8.921875 -7.546875 L 8.65625 -7.546875 L 7.828125 -9.59375 C 7.523438 -9.875 7.164062 -10.097656 6.75 -10.265625 C 6.34375 -10.429688 5.941406 -10.515625 5.546875 -10.515625 C 4.929688 -10.515625 4.390625 -10.351562 3.921875 -10.03125 C 3.453125 -9.71875 3.082031 -9.253906 2.8125 -8.640625 C 2.550781 -8.035156 2.421875 -7.316406 2.421875 -6.484375 L 2.421875 -4.078125 C 2.421875 -3.242188 2.546875 -2.519531 2.796875 -1.90625 C 3.054688 -1.300781 3.414062 -0.835938 3.875 -0.515625 C 4.332031 -0.203125 4.867188 -0.046875 5.484375 -0.046875 C 5.929688 -0.046875 6.378906 -0.144531 6.828125 -0.34375 C 7.273438 -0.539062 7.648438 -0.804688 7.953125 -1.140625 L 8.71875 -3.25 L 9 -3.25 L 9 0.125 L 8.71875 0.125 L 7.765625 -0.546875 C 7.453125 -0.285156 7.09375 -0.0859375 6.6875 0.046875 C 6.28125 0.191406 5.878906 0.265625 5.484375 0.265625 Z M 5.484375 0.265625 "/></g></g></g><g fill="#ffffff" fill-opacity="1"><g transform="translate(321.739204, 177.364251)"><g><path d="M 0.53125 0 L 0.53125 -0.28125 L 1.734375 -0.46875 L 1.734375 -10.078125 L 0.53125 -10.265625 L 0.53125 -10.546875 L 8.46875 -10.546875 L 8.46875 -7.53125 L 8.109375 -7.53125 L 7.09375 -10.21875 L 3.1875 -10.21875 L 3.1875 -5.46875 L 4.90625 -5.46875 L 5.6875 -7.390625 L 6.03125 -7.390625 L 6.03125 -3.21875 L 5.6875 -3.21875 L 4.890625 -5.15625 L 3.1875 -5.15625 L 3.1875 -0.3125 L 7.328125 -0.3125 L 8.40625 -3.21875 L 8.75 -3.21875 L 8.75 0 Z M 0.53125 0 "/></g></g></g><g fill="#f0a109" fill-opacity="1"><g transform="translate(92.714651, 195.36425)"><g><path d="M 6.015625 0.125 L 2.078125 -10.078125 L 2.078125 -0.796875 L 3.34375 -0.28125 L 3.34375 0 L 0.53125 0 L 0.53125 -0.28125 L 1.765625 -0.796875 L 1.765625 -10.078125 L 0.546875 -10.265625 L 0.546875 -10.546875 L 3.46875 -10.546875 L 6.78125 -2.078125 L 10.15625 -10.546875 L 12.8125 -10.546875 L 12.8125 -10.265625 L 11.609375 -10.078125 L 11.609375 -0.46875 L 12.8125 -0.28125 L 12.8125 0 L 8.9375 0 L 8.9375 -0.28125 L 10.15625 -0.46875 L 10.15625 -9.671875 L 6.25 0.125 Z M 6.015625 0.125 "/></g></g></g><g fill="#f0a109" fill-opacity="1"><g transform="translate(116.607201, 195.36425)"><g><path d="M -0.375 0 L -0.375 -0.28125 L 0.921875 -0.796875 L 4.734375 -10.8125 L 4.9375 -10.8125 L 8.546875 -0.46875 L 9.765625 -0.28125 L 9.765625 0 L 5.875 0 L 5.875 -0.28125 L 6.96875 -0.453125 L 5.84375 -3.578125 L 2.328125 -3.578125 L 1.265625 -0.796875 L 2.453125 -0.28125 L 2.453125 0 Z M 2.4375 -3.84375 L 5.75 -3.84375 L 4.171875 -8.5 Z M 2.4375 -3.84375 "/></g></g></g><g fill="#f0a109" fill-opacity="1"><g transform="translate(136.636958, 195.36425)"><g><path d="M 8.1875 0.125 C 7.695312 0.125 7.328125 0.0078125 7.078125 -0.21875 C 6.835938 -0.457031 6.671875 -0.863281 6.578125 -1.4375 L 6.328125 -3.203125 C 6.242188 -3.796875 6.039062 -4.257812 5.71875 -4.59375 C 5.394531 -4.9375 4.894531 -5.109375 4.21875 -5.109375 L 3.1875 -5.109375 L 3.1875 -0.46875 L 4.40625 -0.28125 L 4.40625 0 L 0.53125 0 L 0.53125 -0.28125 L 1.734375 -0.46875 L 1.734375 -10.078125 L 0.53125 -10.265625 L 0.53125 -10.546875 L 4.21875 -10.546875 C 5.65625 -10.546875 6.691406 -10.320312 7.328125 -9.875 C 7.972656 -9.425781 8.296875 -8.742188 8.296875 -7.828125 C 8.296875 -6.316406 7.378906 -5.441406 5.546875 -5.203125 L 5.546875 -5.125 C 6.222656 -5.03125 6.765625 -4.789062 7.171875 -4.40625 C 7.585938 -4.019531 7.847656 -3.503906 7.953125 -2.859375 L 8.125 -1.734375 C 8.195312 -1.234375 8.273438 -0.894531 8.359375 -0.71875 C 8.453125 -0.550781 8.597656 -0.46875 8.796875 -0.46875 C 8.929688 -0.46875 9.070312 -0.507812 9.21875 -0.59375 C 9.363281 -0.675781 9.503906 -0.78125 9.640625 -0.90625 L 9.859375 -0.671875 C 9.609375 -0.378906 9.347656 -0.171875 9.078125 -0.046875 C 8.804688 0.0664062 8.507812 0.125 8.1875 0.125 Z M 4.671875 -5.4375 C 5.304688 -5.4375 5.800781 -5.628906 6.15625 -6.015625 C 6.519531 -6.410156 6.703125 -6.988281 6.703125 -7.75 L 6.703125 -8.03125 C 6.703125 -9.488281 5.875 -10.21875 4.21875 -10.21875 L 3.1875 -10.21875 L 3.1875 -5.4375 Z M 4.671875 -5.4375 "/></g></g></g><g fill="#f0a109" fill-opacity="1"><g transform="translate(156.772184, 195.36425)"><g><path d="M 0.53125 0 L 0.53125 -0.28125 L 1.734375 -0.46875 L 1.734375 -10.078125 L 0.53125 -10.265625 L 0.53125 -10.546875 L 4.40625 -10.546875 L 4.40625 -10.265625 L 3.1875 -10.078125 L 3.1875 -5.328125 L 7.484375 -9.703125 L 6.046875 -10.265625 L 6.046875 -10.546875 L 9.09375 -10.546875 L 9.09375 -10.265625 L 8 -9.703125 L 5.015625 -6.703125 L 9.234375 -0.46875 L 10.125 -0.28125 L 10.125 0 L 6.234375 0 L 6.234375 -0.28125 L 7.4375 -0.46875 L 3.984375 -5.671875 L 3.1875 -4.859375 L 3.1875 -0.46875 L 4.40625 -0.28125 L 4.40625 0 Z M 0.53125 0 "/></g></g></g><g fill="#f0a109" fill-opacity="1"><g transform="translate(177.05243, 195.36425)"><g><path d="M 0.53125 0 L 0.53125 -0.28125 L 1.734375 -0.46875 L 1.734375 -10.078125 L 0.53125 -10.265625 L 0.53125 -10.546875 L 8.46875 -10.546875 L 8.46875 -7.53125 L 8.109375 -7.53125 L 7.09375 -10.21875 L 3.1875 -10.21875 L 3.1875 -5.46875 L 4.90625 -5.46875 L 5.6875 -7.390625 L 6.03125 -7.390625 L 6.03125 -3.21875 L 5.6875 -3.21875 L 4.890625 -5.15625 L 3.1875 -5.15625 L 3.1875 -0.3125 L 7.328125 -0.3125 L 8.40625 -3.21875 L 8.75 -3.21875 L 8.75 0 Z M 0.53125 0 "/></g></g></g><g fill="#f0a109" fill-opacity="1"><g transform="translate(197.108554, 195.36425)"><g><path d="M 2.671875 0 L 2.671875 -0.28125 L 3.890625 -0.46875 L 3.890625 -10.21875 L 1.71875 -10.21875 L 0.71875 -7.609375 L 0.328125 -7.609375 L 0.328125 -10.546875 L 8.921875 -10.546875 L 8.921875 -7.609375 L 8.515625 -7.609375 L 7.53125 -10.21875 L 5.34375 -10.21875 L 5.34375 -0.46875 L 6.546875 -0.28125 L 6.546875 0 Z M 2.671875 0 "/></g></g></g><g fill="#f0a109" fill-opacity="1"><g transform="translate(216.887823, 195.36425)"><g><path d="M 0.53125 -0.28125 L 1.734375 -0.46875 L 1.734375 -10.078125 L 0.53125 -10.265625 L 0.53125 -10.546875 L 4.671875 -10.546875 C 5.972656 -10.546875 6.9375 -10.269531 7.5625 -9.71875 C 8.195312 -9.164062 8.515625 -8.363281 8.515625 -7.3125 C 8.515625 -6.269531 8.195312 -5.472656 7.5625 -4.921875 C 6.9375 -4.367188 5.972656 -4.09375 4.671875 -4.09375 L 3.1875 -4.09375 L 3.1875 -0.46875 L 4.40625 -0.28125 L 4.40625 0 L 0.53125 0 Z M 4.484375 -4.40625 C 6.109375 -4.40625 6.921875 -5.289062 6.921875 -7.0625 L 6.921875 -7.578125 C 6.921875 -9.335938 6.109375 -10.21875 4.484375 -10.21875 L 3.1875 -10.21875 L 3.1875 -4.40625 Z M 4.484375 -4.40625 "/></g></g></g><g fill="#f0a109" fill-opacity="1"><g transform="translate(236.456154, 195.36425)"><g><path d="M 0.53125 0 L 0.53125 -0.28125 L 1.734375 -0.46875 L 1.734375 -10.078125 L 0.53125 -10.265625 L 0.53125 -10.546875 L 4.40625 -10.546875 L 4.40625 -10.265625 L 3.1875 -10.078125 L 3.1875 -0.3125 L 7.140625 -0.3125 L 8.21875 -3.21875 L 8.578125 -3.21875 L 8.578125 0 Z M 0.53125 0 "/></g></g></g><g fill="#f0a109" fill-opacity="1"><g transform="translate(255.905833, 195.36425)"><g><path d="M -0.375 0 L -0.375 -0.28125 L 0.921875 -0.796875 L 4.734375 -10.8125 L 4.9375 -10.8125 L 8.546875 -0.46875 L 9.765625 -0.28125 L 9.765625 0 L 5.875 0 L 5.875 -0.28125 L 6.96875 -0.453125 L 5.84375 -3.578125 L 2.328125 -3.578125 L 1.265625 -0.796875 L 2.453125 -0.28125 L 2.453125 0 Z M 2.4375 -3.84375 L 5.75 -3.84375 L 4.171875 -8.5 Z M 2.4375 -3.84375 "/></g></g></g><g fill="#f0a109" fill-opacity="1"><g transform="translate(275.935591, 195.36425)"><g><path d="M 5.484375 0.265625 C 4.523438 0.265625 3.6875 0.03125 2.96875 -0.4375 C 2.25 -0.90625 1.691406 -1.554688 1.296875 -2.390625 C 0.910156 -3.222656 0.71875 -4.1875 0.71875 -5.28125 C 0.71875 -6.363281 0.914062 -7.320312 1.3125 -8.15625 C 1.707031 -9 2.269531 -9.648438 3 -10.109375 C 3.738281 -10.578125 4.585938 -10.8125 5.546875 -10.8125 C 5.929688 -10.8125 6.316406 -10.742188 6.703125 -10.609375 C 7.097656 -10.484375 7.453125 -10.300781 7.765625 -10.0625 L 8.65625 -10.8125 L 8.921875 -10.8125 L 8.921875 -7.546875 L 8.65625 -7.546875 L 7.828125 -9.59375 C 7.523438 -9.875 7.164062 -10.097656 6.75 -10.265625 C 6.34375 -10.429688 5.941406 -10.515625 5.546875 -10.515625 C 4.929688 -10.515625 4.390625 -10.351562 3.921875 -10.03125 C 3.453125 -9.71875 3.082031 -9.253906 2.8125 -8.640625 C 2.550781 -8.035156 2.421875 -7.316406 2.421875 -6.484375 L 2.421875 -4.078125 C 2.421875 -3.242188 2.546875 -2.519531 2.796875 -1.90625 C 3.054688 -1.300781 3.414062 -0.835938 3.875 -0.515625 C 4.332031 -0.203125 4.867188 -0.046875 5.484375 -0.046875 C 5.929688 -0.046875 6.378906 -0.144531 6.828125 -0.34375 C 7.273438 -0.539062 7.648438 -0.804688 7.953125 -1.140625 L 8.71875 -3.25 L 9 -3.25 L 9 0.125 L 8.71875 0.125 L 7.765625 -0.546875 C 7.453125 -0.285156 7.09375 -0.0859375 6.6875 0.046875 C 6.28125 0.191406 5.878906 0.265625 5.484375 0.265625 Z M 5.484375 0.265625 "/></g></g></g><g fill="#f0a109" fill-opacity="1"><g transform="translate(296.308121, 195.36425)"><g><path d="M 0.53125 0 L 0.53125 -0.28125 L 1.734375 -0.46875 L 1.734375 -10.078125 L 0.53125 -10.265625 L 0.53125 -10.546875 L 8.46875 -10.546875 L 8.46875 -7.53125 L 8.109375 -7.53125 L 7.09375 -10.21875 L 3.1875 -10.21875 L 3.1875 -5.46875 L 4.90625 -5.46875 L 5.6875 -7.390625 L 6.03125 -7.390625 L 6.03125 -3.21875 L 5.6875 -3.21875 L 4.890625 -5.15625 L 3.1875 -5.15625 L 3.1875 -0.3125 L 7.328125 -0.3125 L 8.40625 -3.21875 L 8.75 -3.21875 L 8.75 0 Z M 0.53125 0 "/></g></g></g></svg>