<svg width="200" height="60" viewBox="0 0 200 60" fill="none" xmlns="http://www.w3.org/2000/svg">
<path d="M162.281 32.8532L3.125 32.7251C2.2962 32.7251 1.50134 32.3959 0.915291 31.8098C0.32924 31.2238 0 30.4289 0 29.6001C0 28.7713 0.32924 27.9764 0.915291 27.3904C1.50134 26.8043 2.2962 26.4751 3.125 26.4751L162.284 26.6032C163.113 26.6032 163.908 26.9325 164.494 27.5185C165.08 28.1046 165.409 28.8994 165.409 29.7282C165.409 30.557 165.08 31.3519 164.494 31.9379C163.908 32.524 163.11 32.8532 162.281 32.8532Z" fill="#b07d10"/>
<path d="M200 29.7656C182.247 36.3281 160.216 47.5531 146.563 59.4531L157.331 29.7281L146.603 0C160.244 11.9156 182.256 23.1656 200 29.7656Z" fill="#b07d10"/>
</svg>
