<svg width="55" height="62" viewBox="0 0 55 62" fill="none" xmlns="http://www.w3.org/2000/svg">
<path d="M53.9443 61.9185C54.218 61.9185 54.4804 61.8097 54.674 61.6162C54.8675 61.4227 54.9762 61.1602 54.9762 60.8865V21.1868C54.9762 21.028 54.9394 20.8713 54.8689 20.729C54.7984 20.5867 54.696 20.4626 54.5696 20.3664L28.1135 0.210549C27.9336 0.0739499 27.714 0 27.4881 0C27.2623 0 27.0426 0.0739499 26.8627 0.210549L0.406605 20.3664C0.280094 20.4625 0.177549 20.5865 0.107006 20.7289C0.0364629 20.8712 -0.000162347 21.0279 5.40949e-07 21.1868V60.8865C5.40949e-07 61.1602 0.108728 61.4227 0.302264 61.6162C0.4958 61.8097 0.758291 61.9185 1.03199 61.9185H53.9443ZM2.06398 21.6976L27.4881 2.3282L52.9123 21.6976V59.8545H2.06398V21.6976Z" fill="#F8F8F8"/>
<path fill-rule="evenodd" clip-rule="evenodd" d="M40.2149 34.2476C39.9089 34.2992 39.7024 34.5892 39.754 34.8958C39.876 35.6165 39.9375 36.3416 39.9375 37.0524C39.9375 41.0171 38.1703 44.5959 35.3231 46.9787C34.8258 43.75 32.5335 41.1605 29.4896 40.2338C30.6998 39.4265 31.5 38.051 31.5 36.4899C31.5 34.0081 29.4813 31.9899 27 31.9899C24.5187 31.9899 22.5 34.0081 22.5 36.4899C22.5 38.051 23.3002 39.4265 24.5104 40.2338C21.4665 41.1605 19.1742 43.75 18.6769 46.9787C15.8297 44.5959 14.0625 41.0171 14.0625 37.0524C14.0625 36.3416 14.124 35.6165 14.246 34.8958C14.2976 34.5892 14.0911 34.2992 13.7851 34.2476C13.472 34.1948 13.1885 34.4025 13.1364 34.709C13.0045 35.4901 12.9375 36.2789 12.9375 37.0524C12.9375 43.9606 17.8715 49.791 24.6693 50.916C24.7 50.9215 24.7313 50.9237 24.7615 50.9237C25.0318 50.9237 25.2702 50.7281 25.3158 50.4535C25.3669 50.147 25.1592 49.8569 24.8527 49.8064C22.9572 49.4927 21.2232 48.776 19.7215 47.7594C19.9929 43.9421 23.1301 40.9899 27 40.9899C30.8699 40.9899 34.0071 43.9421 34.2785 47.7594C32.7768 48.776 31.0428 49.4927 29.1473 49.8064C28.8408 49.8569 28.6331 50.147 28.6842 50.4535C28.7298 50.7281 28.9682 50.9237 29.2385 50.9237C29.2687 50.9237 29.3 50.9215 29.3307 50.916C36.1285 49.791 41.0625 43.9606 41.0625 37.0524C41.0625 36.2789 40.9955 35.4901 40.8636 34.709C40.8115 34.4025 40.5247 34.1937 40.2149 34.2476ZM23.625 36.4899C23.625 34.6288 25.1389 33.1149 27 33.1149C28.8611 33.1149 30.375 34.6288 30.375 36.4899C30.375 38.351 28.8611 39.8649 27 39.8649C25.1389 39.8649 23.625 38.351 23.625 36.4899Z" fill="#b07d10"/>
<path fill-rule="evenodd" clip-rule="evenodd" d="M33.16 22.9657C33.0935 22.7614 32.9178 22.613 32.7057 22.5823L29.1115 22.0604L27.5042 18.803C27.3153 18.4207 26.6847 18.4207 26.4957 18.803L24.8884 22.0604L21.2942 22.5823C21.0822 22.613 20.9064 22.7614 20.8399 22.9657C20.774 23.1689 20.829 23.3931 20.9822 23.5425L23.5832 26.077L22.9691 29.6564C22.9328 29.8684 23.0196 30.0815 23.1927 30.2068C23.3668 30.3331 23.5959 30.3518 23.7854 30.2496L27 28.5588L30.2146 30.2496C30.297 30.2936 30.3871 30.3145 30.4766 30.3145C30.5931 30.3145 30.709 30.2782 30.8073 30.2068C30.9803 30.0815 31.0671 29.8684 31.0309 29.6564L30.4167 26.077L33.0177 23.5425C33.171 23.3931 33.2259 23.1689 33.16 22.9657ZM29.4197 25.4772C29.2873 25.6068 29.2269 25.7925 29.2582 25.976L29.7295 28.7236L27.262 27.4261C27.1796 27.3833 27.0901 27.3613 27 27.3613C26.9099 27.3613 26.8203 27.3833 26.738 27.4261L24.2704 28.7236L24.7417 25.976C24.773 25.7925 24.7126 25.6068 24.5802 25.4772L22.584 23.5326L25.3427 23.1316C25.5262 23.1041 25.6844 22.9899 25.7662 22.824L27 20.3235L28.2337 22.824C28.3156 22.9899 28.4738 23.1041 28.6573 23.1316L31.4159 23.5326L29.4197 25.4772Z" fill="#b07d10"/>
<path fill-rule="evenodd" clip-rule="evenodd" d="M13.5395 32.0162C13.5033 32.2283 13.5901 32.4414 13.7631 32.5667C13.9378 32.693 14.1674 32.7106 14.3558 32.6095L16.875 31.2845L19.3941 32.6095C19.4765 32.6534 19.5666 32.6743 19.6562 32.6743C19.7726 32.6743 19.8885 32.6381 19.9869 32.5667C20.1599 32.4414 20.2467 32.2283 20.2104 32.0162L19.7292 29.2114L21.7677 27.2251C21.921 27.0757 21.9759 26.8516 21.91 26.6483C21.8435 26.444 21.6678 26.2957 21.4557 26.2649L18.6388 25.8562L17.3792 23.303C17.1903 22.9207 16.5597 22.9207 16.3707 23.303L15.1111 25.8562L12.2942 26.2649C12.0822 26.2957 11.9064 26.444 11.8399 26.6483C11.774 26.8516 11.829 27.0757 11.9822 27.2251L14.0207 29.2114L13.5395 32.0162ZM13.584 27.2152L15.5654 26.9274C15.7489 26.8999 15.9071 26.7856 15.9889 26.6198L16.875 24.8235L17.761 26.6198C17.8429 26.7856 18.0011 26.8999 18.1845 26.9274L20.1659 27.2152L18.7322 28.6116C18.5998 28.7412 18.5394 28.9269 18.5707 29.1104L18.9091 31.0835L17.137 30.1519C17.0546 30.109 16.9651 30.087 16.875 30.087C16.7849 30.087 16.6953 30.109 16.613 30.1519L14.8409 31.0835L15.1792 29.1104C15.2105 28.9269 15.1501 28.7412 15.0177 28.6116L13.584 27.2152Z" fill="#b07d10"/>
<path fill-rule="evenodd" clip-rule="evenodd" d="M41.7057 26.2649L38.8888 25.8562L37.6292 23.303C37.4403 22.9207 36.8097 22.9207 36.6207 23.303L35.3611 25.8562L32.5442 26.2649C32.3322 26.2957 32.1564 26.444 32.0899 26.6483C32.024 26.8516 32.079 27.0757 32.2322 27.2251L34.2707 29.2114L33.7895 32.0162C33.7533 32.2283 33.8401 32.4414 34.0131 32.5667C34.1872 32.693 34.4163 32.7106 34.6058 32.6095L37.125 31.2845L39.6441 32.6095C39.7265 32.6534 39.8166 32.6743 39.9062 32.6743C40.0226 32.6743 40.1385 32.6381 40.2369 32.5667C40.4099 32.4414 40.4967 32.2283 40.4604 32.0162L39.9792 29.2114L42.0177 27.2251C42.171 27.0757 42.2259 26.8516 42.16 26.6483C42.0935 26.444 41.9178 26.2957 41.7057 26.2649ZM38.9822 28.6116C38.8498 28.7412 38.7894 28.9269 38.8207 29.1104L39.1591 31.0835L37.387 30.1519C37.3046 30.109 37.2151 30.087 37.125 30.087C37.0349 30.087 36.9453 30.109 36.863 30.1519L35.0909 31.0835L35.4292 29.1104C35.4605 28.9269 35.4001 28.7412 35.2677 28.6116L33.834 27.2152L35.8154 26.9274C35.9989 26.8999 36.1571 26.7856 36.2389 26.6198L37.125 24.8235L38.011 26.6198C38.0929 26.7856 38.2511 26.8999 38.4345 26.9274L40.4159 27.2152L38.9822 28.6116Z" fill="#b07d10"/>
<path d="M27 51.1149C27.3107 51.1149 27.5625 50.863 27.5625 50.5524C27.5625 50.2417 27.3107 49.9899 27 49.9899C26.6893 49.9899 26.4375 50.2417 26.4375 50.5524C26.4375 50.863 26.6893 51.1149 27 51.1149Z" fill="#b07d10"/>
</svg>
