<svg width="55" height="55" viewBox="0 0 55 55" fill="none" xmlns="http://www.w3.org/2000/svg">
<path fill-rule="evenodd" clip-rule="evenodd" d="M40.3151 2.29151H14.6612C12.0573 2.29151 10.2406 2.29151 8.82868 2.40896C7.44178 2.52141 6.64713 2.73382 6.04239 3.03869C4.74906 3.69758 3.69758 4.74906 3.03869 6.04239C2.73132 6.64713 2.52141 7.44178 2.40896 8.82868C2.29151 10.2406 2.29151 12.0573 2.29151 14.6612V40.3151C2.29151 42.919 2.29151 44.7332 2.40896 46.1476C2.52141 47.5345 2.73382 48.3291 3.03869 48.9339C3.69758 50.2272 4.74906 51.2787 6.04239 51.9376C6.64713 52.2449 7.44178 52.4548 8.82868 52.5673C10.2406 52.6847 12.0573 52.6847 14.6612 52.6847H40.3151C42.919 52.6847 44.7332 52.6847 46.1476 52.5673C47.5345 52.4548 48.3291 52.2424 48.9339 51.9376C50.2272 51.2787 51.2787 50.2272 51.9376 48.9339C52.2449 48.3291 52.4548 47.5345 52.5673 46.1476C52.6847 44.7332 52.6847 42.919 52.6847 40.3151V14.6612C52.6847 12.0573 52.6847 10.2406 52.5673 8.82868C52.4548 7.44178 52.2424 6.64713 51.9376 6.04239C51.2787 4.74906 50.2272 3.69758 48.9339 3.03869C48.3291 2.73132 47.5345 2.52141 46.1476 2.40896C44.7332 2.29151 42.919 2.29151 40.3151 2.29151ZM0.999568 5.00284C-7.44736e-08 6.96199 0 9.52838 0 14.6612V40.3151C0 45.4479 -7.44736e-08 48.0118 0.999568 49.9734C1.87669 51.6977 3.27858 53.0971 5.00284 53.9767C6.96199 54.9762 9.52838 54.9762 14.6612 54.9762H40.3151C45.4479 54.9762 48.0118 54.9762 49.9734 53.9767C51.6968 53.0981 53.0981 51.6968 53.9767 49.9734C54.9762 48.0143 54.9762 45.4479 54.9762 40.3151V14.6612C54.9762 9.52838 54.9762 6.96449 53.9767 5.00284C53.0983 3.27931 51.6969 1.87799 49.9734 0.999568C48.0143 -7.44736e-08 45.4479 0 40.3151 0H14.6612C9.52838 0 6.96449 -7.44736e-08 5.00284 0.999568C3.27858 1.87669 1.87919 3.27858 0.999568 5.00284Z" fill="#F8F8F8"/>
<path fill-rule="evenodd" clip-rule="evenodd" d="M17.2209 29.9706L17.2209 26.0241C17.2209 25.7496 17.442 25.5292 17.7145 25.5292C17.9877 25.5292 18.2081 25.7496 18.2081 26.0241L18.2082 29.4799L21.6623 29.4798C21.9351 29.4798 22.156 29.7002 22.156 29.9705C22.156 30.245 21.9351 30.4654 21.6623 30.4654L17.7146 30.4655C17.4422 30.4655 17.2209 30.2451 17.2209 29.9706ZM31.8422 11.402C31.8422 11.1275 32.0634 10.9071 32.3358 10.9071L36.284 10.907C36.5564 10.907 36.7776 11.1274 36.7776 11.4018L36.7777 15.3484C36.7777 15.6228 36.5565 15.8432 36.2841 15.8433C36.0117 15.8433 35.7904 15.6229 35.7904 15.3484L35.7904 11.8968L32.3358 11.8968C32.0634 11.8969 31.8422 11.6723 31.8422 11.402ZM23.1074 12.5042L25.2829 16.8582L23.6639 16.8583C23.3915 16.8583 23.1707 17.0787 23.1707 17.3532L23.1708 20.1935L19.2634 20.1936L23.1074 12.5042ZM31.1485 24.8344L31.1483 17.8438L24.1577 17.8439L24.1578 24.8345L31.1485 24.8344ZM32.1357 25.3292L32.1357 21.2122C34.1913 21.4575 35.7907 23.2083 35.7907 25.3292C35.7908 27.6164 33.9298 29.4795 31.6422 29.4795C29.5217 29.4796 27.7684 27.8785 27.5234 25.8242L31.6421 25.8242C31.9145 25.8241 32.1357 25.6037 32.1357 25.3292ZM18.4649 21.1792L23.1709 21.1791L23.1709 25.3294C23.1709 25.6038 23.3918 25.8242 23.6641 25.8242L26.5307 25.8242C26.7794 28.4233 28.9769 30.4651 31.6422 30.4651C34.4738 30.465 36.778 28.1611 36.7779 25.329C36.7779 22.6634 34.7372 20.4676 32.1355 20.2182L32.1354 17.3529C32.1354 17.0784 31.9142 16.858 31.6418 16.858L26.3874 16.8581L23.5481 11.1817C23.3649 10.8161 22.8482 10.8176 22.6656 11.1817L18.0237 20.4682C17.8607 20.79 18.0949 21.1793 18.4649 21.1792ZM40.3729 33.6172C40.2714 34.0164 40.0161 34.3532 39.6543 34.5653C39.2867 34.7774 38.752 35.0976 38.1319 35.4719C36.53 36.4409 34.1089 37.9006 31.9223 39.0735C28.6025 40.8493 27.4577 41.078 27.0713 41.0572C23.739 40.8692 20.356 40.2352 17.0149 40.7705L17.0148 34.4203C17.802 34.3829 18.7444 34.2996 19.6917 34.0917C20.2416 33.9695 21.3601 33.4395 22.4396 32.9147C24.6266 31.8667 24.7926 31.9041 26.822 32.3449C27.9441 32.5852 30.9703 33.151 30.9803 34.2536C30.9849 34.5073 30.9212 34.7485 30.7965 34.9648C30.759 34.9898 30.7237 35.0188 30.6925 35.0521C30.3827 35.4015 29.9186 35.5844 29.4507 35.547L24.1069 35.1188C23.8357 35.098 23.5975 35.2976 23.5758 35.5721C23.5533 35.8424 23.7559 36.0794 24.0279 36.1002L29.3717 36.5326C29.4383 36.5368 29.504 36.5409 29.5697 36.5409C30.2089 36.5409 30.8302 36.2913 31.2913 35.8504C31.3126 35.8422 31.3337 35.8338 31.3533 35.8214L38.0266 31.9454C39.2186 31.2533 40.7065 32.2943 40.3729 33.6172ZM16.0281 42.3176C16.0281 42.4132 15.9449 42.4965 15.8472 42.4965L13.7629 42.4966C13.6643 42.4966 13.5812 42.4134 13.5812 42.3178L13.581 33.4516C13.581 33.3518 13.6641 33.2685 13.7627 33.2685L15.847 33.2685C15.9447 33.2685 16.0279 33.3516 16.0279 33.4514L16.0281 42.3176ZM41.042 31.962C40.318 30.781 38.7431 30.3901 37.5308 31.093L31.9675 34.3243C31.9679 34.2952 31.9679 34.2703 31.9675 34.2412C31.9633 32.8938 30.4129 32.27 29.246 31.9166C28.4616 31.6786 27.7402 31.5325 27.0327 31.3802C24.7917 30.8937 24.4128 30.8729 22.0125 32.0249C21.0674 32.4838 19.9305 33.0273 19.4803 33.127C18.6186 33.3142 17.7499 33.3932 17.0142 33.4348C17.0042 32.7985 16.4852 32.2828 15.8469 32.2828L13.7626 32.2829C13.1179 32.2829 12.594 32.8069 12.594 33.4516L12.5942 42.3178C12.5942 42.9623 13.1182 43.4863 13.7628 43.4863L15.8472 43.4863C16.4914 43.4863 17.0149 42.9622 17.0149 42.3177V41.7688C19.2997 41.3755 21.5449 41.571 24.0949 41.806C25.0368 41.8933 26.0116 41.9848 27.0142 42.043H27.1086C28.9942 42.0429 34.0422 39.0943 38.642 36.3204C39.2579 35.9461 39.7893 35.6259 40.1495 35.4179C41.3629 34.715 41.7744 33.1623 41.042 31.962Z" fill="#FCDB66"/>
</svg>
