<svg width="55" height="55" viewBox="0 0 55 55" fill="none" xmlns="http://www.w3.org/2000/svg">
<path fill-rule="evenodd" clip-rule="evenodd" d="M40.3151 2.29151H14.6612C12.0573 2.29151 10.2406 2.29151 8.82868 2.40896C7.44178 2.52141 6.64713 2.73382 6.04239 3.03869C4.74906 3.69758 3.69758 4.74906 3.03869 6.04239C2.73132 6.64713 2.52141 7.44178 2.40896 8.82868C2.29151 10.2406 2.29151 12.0573 2.29151 14.6612V40.3151C2.29151 42.919 2.29151 44.7332 2.40896 46.1476C2.52141 47.5345 2.73382 48.3291 3.03869 48.9339C3.69758 50.2272 4.74906 51.2787 6.04239 51.9376C6.64713 52.2449 7.44178 52.4548 8.82868 52.5673C10.2406 52.6847 12.0573 52.6847 14.6612 52.6847H40.3151C42.919 52.6847 44.7332 52.6847 46.1476 52.5673C47.5345 52.4548 48.3291 52.2424 48.9339 51.9376C50.2272 51.2787 51.2787 50.2272 51.9376 48.9339C52.2449 48.3291 52.4548 47.5345 52.5673 46.1476C52.6847 44.7332 52.6847 42.919 52.6847 40.3151V14.6612C52.6847 12.0573 52.6847 10.2406 52.5673 8.82868C52.4548 7.44178 52.2424 6.64713 51.9376 6.04239C51.2787 4.74906 50.2272 3.69758 48.9339 3.03869C48.3291 2.73132 47.5345 2.52141 46.1476 2.40896C44.7332 2.29151 42.919 2.29151 40.3151 2.29151ZM0.999568 5.00284C-5.96046e-08 6.96199 0 9.52838 0 14.6612V40.3151C0 45.4479 -5.96046e-08 48.0118 0.999568 49.9734C1.87669 51.6977 3.27858 53.0971 5.00284 53.9767C6.96199 54.9762 9.52838 54.9762 14.6612 54.9762H40.3151C45.4479 54.9762 48.0118 54.9762 49.9734 53.9767C51.6968 53.0981 53.0981 51.6968 53.9767 49.9734C54.9762 48.0143 54.9762 45.4479 54.9762 40.3151V14.6612C54.9762 9.52838 54.9762 6.96449 53.9767 5.00284C53.0983 3.27931 51.6969 1.87799 49.9734 0.999568C48.0143 -5.96046e-08 45.4479 0 40.3151 0H14.6612C9.52838 0 6.96449 -5.96046e-08 5.00284 0.999568C3.27858 1.87669 1.87919 3.27858 0.999568 5.00284Z" fill="#F8F8F8"/>
<path d="M26.9785 14.9779C20.6842 14.9779 15.5634 20.0987 15.5634 26.3929C15.5634 28.4066 16.095 30.3864 17.1007 32.1182C18.0762 33.798 19.4741 35.2115 21.143 36.2059C21.6322 36.4975 21.9015 36.9714 21.9015 37.5406V40.1697C21.9015 41.1155 22.5257 41.9183 23.3837 42.1878V42.2366C23.3837 43.7912 24.6484 45.0561 26.2031 45.0561H27.7538C29.3085 45.0561 30.5734 43.7913 30.5734 42.2366V42.1878C31.4313 41.9182 32.0554 41.1154 32.0554 40.1697V37.5406C32.0554 36.9714 32.3249 36.4974 32.8141 36.2059C34.483 35.2115 35.8808 33.798 36.8564 32.1182C37.8621 30.3864 38.3937 28.4066 38.3937 26.3929C38.3937 20.0986 33.2729 14.9779 26.9785 14.9779ZM27.7539 43.7904H26.2032C25.3626 43.7904 24.6762 43.1192 24.6507 42.2846H29.3065C29.281 43.1192 28.5946 43.7904 27.7539 43.7904ZM29.9406 41.019H24.0166C23.5482 41.019 23.1672 40.6379 23.1672 40.1696V39.7195H30.7898V40.1696C30.7898 40.6379 30.4088 41.019 29.9406 41.019ZM32.1664 35.1186C31.2916 35.6398 30.7899 36.5226 30.7899 37.5405V38.4538H23.1672V37.5405C23.1672 36.5226 22.6655 35.6398 21.7908 35.1186C18.7304 33.295 16.8291 29.9516 16.8291 26.3928C16.8291 20.7965 21.3821 16.2434 26.9786 16.2434C32.5751 16.2434 37.1282 20.7965 37.1282 26.3928C37.1281 29.9516 35.2269 33.295 32.1664 35.1186ZM12.2819 17.8225C12.4566 17.5198 12.8434 17.416 13.1463 17.5908L15.568 18.9889C15.8707 19.1637 15.9743 19.5507 15.7996 19.8534C15.6824 20.0564 15.4697 20.1698 15.2509 20.1698C15.1436 20.1698 15.0349 20.1425 14.9352 20.085L12.5135 18.6869C12.2108 18.5121 12.1071 18.1251 12.2819 17.8225ZM13.4374 26.9403H10.6411C10.2916 26.9403 10.0083 26.657 10.0083 26.3075C10.0083 25.958 10.2916 25.6747 10.6411 25.6747H13.4374C13.787 25.6747 14.0703 25.958 14.0703 26.3075C14.0703 26.657 13.787 26.9403 13.4374 26.9403ZM15.7996 32.7617C15.9743 33.0644 15.8707 33.4514 15.568 33.6261L13.1463 35.0243C13.0467 35.0818 12.9379 35.1091 12.8306 35.1091C12.6118 35.1091 12.3991 34.9957 12.2819 34.7927C12.1072 34.49 12.2108 34.103 12.5135 33.9282L14.9352 32.5301C15.238 32.3553 15.6249 32.4591 15.7996 32.7617ZM34.0098 24.5869H33.3303C33.1911 24.0957 32.996 23.6249 32.7467 23.1791L33.2274 22.6984C33.4745 22.4513 33.4746 22.0506 33.2275 21.8035L31.5682 20.1441C31.4495 20.0254 31.2886 19.9588 31.1208 19.9588C30.9529 19.9588 30.792 20.0254 30.6734 20.1441L30.1925 20.6249C29.7464 20.3754 29.2756 20.1803 28.7847 20.0412V19.3618C28.7847 19.0123 28.5014 18.729 28.1519 18.729H25.8053C25.4558 18.729 25.1725 19.0123 25.1725 19.3618V20.0412C24.6814 20.1803 24.2105 20.3754 23.7646 20.6248L23.2839 20.1442C23.0367 19.897 22.6361 19.897 22.3889 20.1442L20.7296 21.8035C20.4824 22.0507 20.4824 22.4513 20.7296 22.6985L21.2103 23.1791C20.9607 23.6253 20.7656 24.0961 20.6266 24.587H19.9474C19.5979 24.587 19.3146 24.8704 19.3146 25.2198V27.5665C19.3146 27.916 19.5979 28.1993 19.9474 28.1993H20.6267C20.7658 28.6904 20.9609 29.1612 21.2103 29.6072L20.7296 30.0878C20.4824 30.3351 20.4825 30.7357 20.7296 30.9828L22.3889 32.6422C22.5076 32.7609 22.6686 32.8276 22.8364 32.8276C23.0042 32.8276 23.1652 32.7609 23.2839 32.6421L23.7645 32.1615C24.2107 32.411 24.6815 32.6061 25.1725 32.7451V33.4244C25.1725 33.774 25.4557 34.0573 25.8053 34.0573H28.1518C28.5013 34.0573 28.7846 33.774 28.7846 33.4244V32.745C29.2756 32.6059 29.7465 32.4108 30.1925 32.1614L30.6733 32.6421C30.9205 32.8892 31.321 32.8893 31.5682 32.6421L33.2275 30.9828C33.4745 30.7357 33.4746 30.3351 33.2275 30.0878L32.7467 29.6071C32.9961 29.161 33.1912 28.6902 33.3303 28.1993H34.0098C34.3593 28.1993 34.6426 27.916 34.6426 27.5665V25.2198C34.6426 24.8702 34.3593 24.5869 34.0098 24.5869ZM33.3769 26.9335H32.8323C32.5305 26.9335 32.2707 27.1467 32.2117 27.4426C32.0754 28.1267 31.8092 28.7688 31.4207 29.351C31.2532 29.602 31.2863 29.9363 31.4996 30.1496L31.885 30.5352L31.1207 31.2995L30.7352 30.9141C30.5218 30.7007 30.1874 30.6676 29.9365 30.8353C29.3546 31.2236 28.7125 31.4898 28.0281 31.6262C27.7322 31.6852 27.5191 31.945 27.5191 32.2468V32.7914H26.4382V32.2468C26.4382 31.9449 26.225 31.6851 25.9289 31.6262C25.2449 31.4899 24.6029 31.2238 24.0206 30.8353C23.7697 30.6676 23.4352 30.7007 23.2218 30.9141L22.8365 31.2996L22.072 30.5352L22.4575 30.1496C22.6708 29.9362 22.7039 29.6019 22.5363 29.351C22.148 28.7691 21.8818 28.1271 21.7454 27.4426C21.6864 27.1467 21.4266 26.9335 21.1248 26.9335H20.5803V25.8525H21.1248C21.4266 25.8525 21.6864 25.6393 21.7454 25.3433C21.8816 24.6593 22.1478 24.0173 22.5363 23.4351C22.7039 23.1841 22.6708 22.8497 22.4575 22.6363L22.072 22.2509L22.8365 21.4864L23.2218 21.8719C23.4353 22.0853 23.7696 22.1183 24.0206 21.9508C24.6024 21.5624 25.2445 21.2963 25.9292 21.1598C26.2251 21.1007 26.4382 20.841 26.4382 20.5392V19.9945H27.5191V20.5392C27.5191 20.841 27.7322 21.1008 28.0281 21.1598C28.7122 21.2961 29.3543 21.5623 29.9365 21.9508C30.1876 22.1183 30.5218 22.0853 30.7352 21.8719L31.1207 21.4864L31.885 22.2508L31.4995 22.6363C31.2861 22.8498 31.2531 23.1842 31.4207 23.4352C31.8089 24.0166 32.0751 24.6587 32.2117 25.3435C32.2708 25.6394 32.5306 25.8525 32.8323 25.8525H33.3769V26.9335ZM26.9784 22.104C24.6134 22.104 22.6894 24.0281 22.6894 26.3931C22.6894 28.758 24.6134 30.682 26.9784 30.682C29.3434 30.682 31.2674 28.758 31.2674 26.3931C31.2674 24.0281 29.3434 22.104 26.9784 22.104ZM26.9784 29.4164C25.3113 29.4164 23.9551 28.0602 23.9551 26.3931C23.9551 24.7259 25.3113 23.3696 26.9784 23.3696C28.6455 23.3696 30.0018 24.7259 30.0018 26.3931C30.0018 28.0602 28.6455 29.4164 26.9784 29.4164ZM38.1576 19.8534C37.9829 19.5507 38.0865 19.1637 38.3892 18.9889L40.8107 17.5908C41.1135 17.416 41.5005 17.5199 41.6752 17.8225C41.8499 18.1251 41.7462 18.5121 41.4435 18.6869L39.022 20.085C38.9224 20.1425 38.8136 20.1699 38.7063 20.1699C38.4875 20.1698 38.2748 20.0564 38.1576 19.8534ZM43.9915 26.319C43.9915 26.6685 43.7082 26.9518 43.3587 26.9518H40.5624C40.2129 26.9518 39.9296 26.6685 39.9296 26.319C39.9296 25.9695 40.2129 25.6862 40.5624 25.6862H43.3587C43.7082 25.6862 43.9915 25.9695 43.9915 26.319ZM41.6752 34.7927C41.5579 34.9957 41.3452 35.1091 41.1265 35.1091C41.0192 35.1091 40.9104 35.0818 40.8107 35.0243L38.3892 33.6261C38.0865 33.4514 37.9829 33.0644 38.1576 32.7617C38.3323 32.459 38.7193 32.3553 39.022 32.5301L41.4435 33.9282C41.7462 34.103 41.8499 34.49 41.6752 34.7927ZM26.3457 12.7664V9.97009C26.3457 9.62057 26.629 9.33728 26.9785 9.33728C27.328 9.33728 27.6113 9.62057 27.6113 9.97009V12.7664C27.6113 13.1159 27.328 13.3992 26.9785 13.3992C26.629 13.3992 26.3457 13.1158 26.3457 12.7664ZM18.2618 12.4753C18.0871 12.1726 18.1907 11.7856 18.4934 11.6109C18.796 11.4361 19.183 11.5399 19.3578 11.8424L20.7561 14.264C20.9309 14.5667 20.8272 14.9537 20.5245 15.1284C20.4249 15.1859 20.316 15.2134 20.2087 15.2134C19.9901 15.2134 19.7773 15.0999 19.6601 14.8969L18.2618 12.4753ZM33.2012 14.2641L34.5993 11.8426C34.774 11.54 35.1607 11.4362 35.4637 11.6109C35.7664 11.7856 35.87 12.1726 35.6953 12.4753L34.2973 14.8969C34.18 15.0999 33.9674 15.2134 33.7486 15.2134C33.6413 15.2134 33.5325 15.1861 33.4328 15.1286C33.1302 14.9538 33.0265 14.5668 33.2012 14.2641Z" fill="#b07d10"/>
</svg>
