<svg width="34" height="34" viewBox="0 0 34 34" fill="none" xmlns="http://www.w3.org/2000/svg">
<path d="M26.5362 8.59604C28.8103 8.59604 30.6568 6.74176 30.6568 4.47185C30.4532 -0.99124 22.6228 -0.990646 22.4156 4.47185C22.4156 6.74176 24.2681 8.59604 26.5362 8.59604Z" fill="white"/>
<path d="M33.2759 11.4365C32.5697 10.1207 31.4918 9.04198 30.1765 8.33479C28.321 10.2419 24.7514 10.2413 22.8965 8.33479C20.9793 9.40532 18.4779 11.9026 19.8625 14.2646C20.1146 14.6882 20.4729 15.0387 20.9019 15.2815C21.3309 15.5243 21.8158 15.651 22.3087 15.6492H30.7637C32.8668 15.7187 34.3262 13.2504 33.2759 11.4365ZM7.44954 8.59604C9.72361 8.59604 11.5702 6.74176 11.5702 4.47185C11.3659 -0.99124 3.53614 -0.990646 3.32892 4.47185C3.32892 6.74176 5.18142 8.59604 7.44954 8.59604Z" fill="white"/>
<path d="M14.1239 14.2646C15.5061 11.9015 13.0112 9.40595 11.0898 8.33423C9.23433 10.2419 5.6647 10.2414 3.80923 8.33423C1.89261 9.40535 -0.609456 11.9027 0.775169 14.2646C1.02732 14.6882 1.38558 15.0387 1.81457 15.2815C2.24357 15.5243 2.72847 15.6511 3.22142 15.6492H11.6776C12.6929 15.6492 13.6073 15.1327 14.1239 14.2646ZM12.8728 22.4465C12.8728 24.7164 14.7253 26.5701 16.9935 26.5701C22.4536 26.3623 22.4518 18.5259 16.9935 18.3223C14.7253 18.3223 12.8728 20.17 12.8728 22.4465Z" fill="white"/>
<path d="M20.6337 26.3088C18.7783 28.2165 15.2092 28.2153 13.3538 26.3088C12.0398 27.0177 10.9623 28.096 10.2544 29.4105C9.20226 31.2244 10.6706 33.6926 12.7659 33.6238H21.2215C23.3234 33.6932 24.7834 31.225 23.7331 29.4105C23.027 28.0947 21.949 27.0159 20.6337 26.3088ZM14.1619 9.31504C15.9965 8.7866 17.9856 8.7866 19.8203 9.31504C20.1172 8.9766 20.4319 8.66132 20.7703 8.37038C18.3478 7.5142 15.6344 7.52013 13.2119 8.37038C13.5562 8.65538 13.8709 8.97067 14.1619 9.31504ZM6.8991 18.9949C6.8991 18.264 6.97629 17.5391 7.13066 16.8379H5.91941C5.52682 18.8491 5.69097 20.9294 6.39413 22.8543C7.0973 24.7791 8.31279 26.4753 9.90941 27.7599C10.141 27.4393 10.4022 27.1418 10.6754 26.8562C9.49712 25.9125 8.54603 24.7161 7.8924 23.3554C7.23877 21.9947 6.8993 20.5045 6.8991 18.9949ZM26.8568 16.8379C27.2565 18.6716 27.1371 20.5805 26.512 22.3502C25.8869 24.1199 24.7809 25.6803 23.3181 26.8562C23.5912 27.1412 23.8465 27.4387 24.084 27.7599C25.6792 26.4743 26.8933 24.7778 27.5954 22.8531C28.2974 20.9284 28.4609 18.8486 28.0681 16.8379H26.8568Z" fill="white"/>
</svg>
