<svg width="28" height="28" viewBox="0 0 28 28" fill="none" xmlns="http://www.w3.org/2000/svg">
<path d="M26.1087 2.26208C26.0869 2.06538 25.9251 1.90361 25.7284 1.88176C24.0498 1.68068 22.3798 1.72876 20.7623 2.02165C17.3813 2.60134 14.0386 4.43857 11.4466 6.94405C11.2071 7.17191 10.6362 7.71102 10.4061 7.93201C9.04162 9.5093 7.46899 11.5987 6.55481 13.3659C6.42292 13.6336 6.55298 13.8369 6.77774 14.0303C6.98755 14.2402 7.38975 14.638 7.90122 15.1495C9.8564 17.1094 11.9912 19.2434 13.9602 21.2128L14.1088 21.3614C14.3163 21.5733 14.6117 21.4783 14.8257 21.3265C15.8443 20.7582 17.2389 19.8926 18.7077 18.7035C23.6636 14.8223 26.9848 8.63769 26.1087 2.26208ZM20.4214 12.5352C18.2627 14.7422 14.3922 13.1432 14.428 10.0521C14.3991 6.95733 18.2497 5.36104 20.4214 7.56922C21.794 8.93746 21.794 11.1669 20.4214 12.5352Z" fill="#222222"/>
<path d="M2.5821 14.5368C2.59958 14.5368 2.61705 14.5368 2.63456 14.5324L5.76896 14.1521C5.53557 13.7091 5.6165 13.1728 5.89138 12.7576C6.10993 12.3554 6.4684 11.739 6.96676 10.9827C7.79338 9.69368 8.81297 8.46211 9.79081 7.31495C9.7908 7.31495 10.4203 6.71605 10.4203 6.71605C5.18115 6.6639 2.49937 11.2693 2.15376 14.0341C2.10352 14.2866 2.32063 14.5451 2.5821 14.5368Z" fill="#222222"/>
<path d="M19.2594 19.3801C18.0135 20.3899 16.667 21.2992 15.2507 22.0905C14.8475 22.367 14.2845 22.4641 13.8386 22.2216C13.8386 22.2216 13.4583 25.356 13.4583 25.356C13.4211 25.6054 13.6356 25.8518 13.8911 25.8456C14.717 25.7248 18.4382 24.978 20.3479 21.3998C20.9464 20.2771 21.2974 18.7704 21.279 17.5615C20.6424 18.1986 19.9833 18.7948 19.2594 19.3801Z" fill="#222222"/>
<path d="M11.5749 20.063C10.2725 18.7571 8.77275 17.2591 7.49185 15.9756L7.19459 16.5789C6.94541 17.0816 7.04157 17.6893 7.4394 18.0871L9.90496 20.5526C10.3059 20.9503 10.9138 21.0518 11.4131 20.7974L12.0164 20.5002C11.8705 20.3548 11.7279 20.21 11.5749 20.063Z" fill="#222222"/>
<path d="M7.48696 20.5223C4.46633 17.8345 1.79541 23.1352 1.75154 25.7769C1.72874 26.0283 1.96218 26.2625 2.21487 26.2403C4.84891 26.196 10.1367 23.5397 7.48696 20.5223Z" fill="#222222"/>
<path d="M17.9394 7.41602C14.4645 7.50648 14.443 12.588 17.9395 12.6881C21.437 12.5857 21.4143 7.50632 17.9394 7.41602Z" fill="#222222"/>
</svg>
