<svg width="28" height="28" viewBox="0 0 28 28" fill="none" xmlns="http://www.w3.org/2000/svg">
<path d="M10.9352 28C4.90552 28 0 23.0945 0 17.0648C0 11.0352 4.90552 6.12966 10.9352 6.12966C11.9376 6.12966 12.9086 6.26596 13.8316 6.51977L14.3279 9.00151C13.2841 8.56065 12.1376 8.31669 10.9352 8.31669C6.11145 8.31669 2.18703 12.2411 2.18703 17.0648C2.18703 21.8886 6.11145 25.813 10.9352 25.813C15.7589 25.813 19.6833 21.8886 19.6833 17.0648C19.6833 15.8624 19.4393 14.7159 18.9985 13.6721L21.4802 14.1684C21.734 15.0914 21.8703 16.0624 21.8703 17.0648C21.8703 23.0945 16.9648 28 10.9352 28ZM10.9352 21.4389C8.52331 21.4389 6.5611 19.4767 6.5611 17.0648C6.5611 14.7453 8.37612 12.8427 10.6603 12.7003L12.6335 10.7271C12.0916 10.5817 11.5223 10.5037 10.9352 10.5037C7.31738 10.5037 4.37407 13.447 4.37407 17.0648C4.37407 20.6826 7.31738 23.6259 10.9352 23.6259C14.553 23.6259 17.4963 20.6826 17.4963 17.0648C17.4963 16.4777 17.4183 15.9084 17.2729 15.3665L15.2997 17.3397C15.1573 19.6239 13.2547 21.4389 10.9352 21.4389ZM15.934 5.88017L21.8142 0L22.8452 5.15489L28.0001 6.18586L22.1198 12.066L18.2536 11.2928L11.7084 17.8381L10.1619 16.2916L16.7072 9.74636L15.934 5.88017ZM20.471 4.43607L18.3081 6.59899L18.8236 9.17647L21.4011 9.69195L23.564 7.52903L20.9866 7.01355L20.471 4.43607Z" fill="#222222"/>
</svg>
