<svg width="126" height="132" viewBox="0 0 126 132" fill="none" xmlns="http://www.w3.org/2000/svg">
<foreignObject x="-50" y="-50" width="225.965" height="231.272"><div xmlns="http://www.w3.org/1999/xhtml" style="backdrop-filter:blur(25px);clip-path:url(#bgblur_0_9041_14_clip_path);height:100%;width:100%"></div></foreignObject><path data-figma-bg-blur-radius="50" d="M12.1395 52.9559L-0.000151697 49.346L0.474711 47.7491L12.6143 51.359L12.1395 52.9559ZM15.7636 43.2302L5.9079 38.0483L4.3098 41.0878L2.95558 40.3757L6.91127 32.8523L8.26549 33.5643L6.69113 36.5586L16.5469 41.7406L15.7636 43.2302ZM29.787 25.6068C29.0944 26.1742 28.3539 26.5758 27.5654 26.8116C26.7785 27.0314 25.9791 27.0929 25.1673 26.9962C24.3642 26.8922 23.593 26.6304 22.8535 26.2107C22.114 25.7909 21.4462 25.2172 20.85 24.4896C20.2467 23.7532 19.812 22.9812 19.5459 22.1736C19.2798 21.366 19.1748 20.5583 19.2309 19.7505C19.287 18.9427 19.5082 18.1754 19.8944 17.4487C20.2735 16.7132 20.8093 16.0618 21.5019 15.4944C22.1769 14.9413 22.8788 14.5641 23.6075 14.3626C24.345 14.154 25.0522 14.0874 25.7293 14.1627C26.4151 14.2308 27.0129 14.415 27.5226 14.7153L26.7808 16.2241C26.1076 15.8673 25.3934 15.7198 24.6383 15.7817C23.876 15.8349 23.1573 16.138 22.4823 16.691C21.7985 17.2513 21.3221 17.9126 21.0531 18.6751C20.7928 19.4305 20.7507 20.2195 20.9267 21.0423C21.1027 21.8651 21.5067 22.6623 22.1387 23.4338C22.7636 24.1965 23.4621 24.745 24.2342 25.0794C25.0064 25.4138 25.7883 25.5277 26.5801 25.4211C27.3806 25.3074 28.1227 24.9704 28.8065 24.4101C29.4816 23.8571 29.9237 23.2164 30.133 22.4883C30.335 21.7513 30.3273 21.0177 30.11 20.2874L31.7352 19.8569C31.9293 20.4158 31.9923 21.0381 31.9242 21.724C31.8649 22.4026 31.6604 23.0829 31.3108 23.7649C30.9699 24.4398 30.462 25.0537 29.787 25.6068ZM44.2055 16.9001C43.3666 17.213 42.5254 17.3574 41.6818 17.3334C40.8343 17.2988 40.0314 17.1084 39.2733 16.7622C38.5258 16.412 37.8594 15.9227 37.2742 15.2943C36.685 14.6552 36.2261 13.895 35.8973 13.0137C35.5646 12.1217 35.4136 11.2466 35.4442 10.3885C35.4749 9.53028 35.6581 8.72411 35.9936 7.96993C36.3398 7.21179 36.8185 6.54939 37.4297 5.98273C38.0515 5.4121 38.7871 4.96835 39.6366 4.65148C40.4861 4.3346 41.3293 4.19546 42.1662 4.23406C43.0098 4.25808 43.8054 4.44517 44.5529 4.79533C45.3071 5.13091 45.9768 5.61292 46.562 6.24136C47.1578 6.86583 47.6221 7.62405 47.9548 8.51602C48.2835 9.39737 48.4292 10.2744 48.3919 11.1472C48.3612 12.0053 48.1728 12.8135 47.8266 13.5716C47.491 14.3258 47.0143 14.9935 46.3965 15.5748C45.7853 16.1414 45.055 16.5832 44.2055 16.9001ZM43.6649 15.4506C44.3232 15.2051 44.8796 14.8645 45.334 14.4288C45.7845 13.9826 46.1269 13.4738 46.3614 12.9025C46.6025 12.3167 46.7242 11.7027 46.7267 11.0607C46.7358 10.4041 46.6195 9.75195 46.3779 9.10422C46.1363 8.45648 45.799 7.89281 45.3661 7.4132C44.9438 6.92963 44.4517 6.55073 43.8897 6.2765C43.3344 5.98769 42.7425 5.82749 42.1138 5.79588C41.4811 5.75366 40.8356 5.85534 40.1772 6.10092C39.5295 6.34254 38.9804 6.68646 38.53 7.1327C38.0756 7.56832 37.7278 8.07907 37.4867 8.66495C37.2522 9.23625 37.1285 9.84488 37.1154 10.4908C37.1024 11.1368 37.2166 11.7837 37.4583 12.4314C37.6999 13.0791 38.0391 13.6481 38.476 14.1383C38.9089 14.618 39.403 15.0022 39.9583 15.291C40.5203 15.5652 41.1176 15.7234 41.7502 15.7657C42.3789 15.7973 43.0171 15.6922 43.6649 15.4506ZM55.9516 12.8021L55.7271 0.139079L57.2568 0.111958L62.1187 6.77582L61.3368 6.78968L65.9255 -0.0417317L67.4552 -0.0688534L67.6797 12.5942L65.997 12.624L65.8099 2.06865L66.4081 2.24507L61.8174 8.95751L61.6814 8.95992L56.9066 2.41353L57.4302 2.21722L57.6173 12.7726L55.9516 12.8021ZM74.0944 12.8889L77.5448 0.702949L81.8467 1.92099C82.6536 2.14947 83.3192 2.50282 83.8434 2.98106C84.3676 3.45929 84.7184 4.02979 84.8959 4.69254C85.0843 5.35839 85.0705 6.07297 84.8543 6.8363C84.6382 7.59962 84.2754 8.21541 83.7659 8.68365C83.2704 9.14407 82.6725 9.44595 81.9723 9.58928C81.2861 9.72479 80.5341 9.67677 79.7162 9.4452L77.0173 8.68103L75.6974 13.3428L74.0944 12.8889ZM77.4342 7.2089L80.1821 7.98697C80.6728 8.12591 81.1244 8.15363 81.5367 8.07014C81.9491 7.98665 82.3028 7.79822 82.5979 7.50485C82.8929 7.21147 83.1053 6.83579 83.235 6.37779C83.3678 5.90889 83.3839 5.47763 83.2833 5.08401C83.1858 4.67949 82.9834 4.33359 82.676 4.04632C82.3687 3.75906 81.9696 3.54595 81.4789 3.40701L78.7309 2.62895L77.4342 7.2089ZM86.0287 16.3192L96.4543 7.81555L98.1432 8.83358L95.4924 22.0237L93.9637 21.1022L94.6114 18.0189L89.9814 15.2281L87.5575 17.2407L86.0287 16.3192ZM91.2226 14.1898L94.9499 16.4365L96.4718 9.23543L96.8795 9.48116L91.2226 14.1898ZM99.7597 25.0694L109.14 16.5593L110.076 17.5917L107.386 29.857L106.913 29.4369L114.543 22.5146L115.673 23.761L106.294 32.2711L105.357 31.2387L108.121 18.9529L108.559 19.3353L100.879 26.3032L99.7597 25.0694ZM111.704 40.1614L116.924 37.6415L121.203 30.7061L122.023 32.4055L118.429 38.2175L118.134 37.6051L124.913 38.3916L125.733 40.091L117.656 39.1572L112.435 41.6771L111.704 40.1614ZM118.423 64.0487L120.463 64.0998L120.422 65.7483L118.382 65.6972L118.423 64.0487ZM114.514 85.5244L125.965 90.9364L125.253 92.4426L113.802 87.0307L114.514 85.5244ZM109.457 94.5873L118.415 101.201L120.455 98.4386L121.685 99.3474L116.637 106.186L115.406 105.277L117.415 102.555L108.457 95.9413L109.457 94.5873ZM92.9439 109.908C93.7134 109.45 94.5056 109.164 95.3204 109.048C96.1313 108.948 96.9309 109.007 97.7192 109.224C98.4978 109.446 99.2213 109.82 99.8898 110.346C100.558 110.871 101.133 111.538 101.614 112.347C102.101 113.165 102.415 113.993 102.558 114.831C102.7 115.67 102.684 116.484 102.507 117.274C102.331 118.065 101.998 118.79 101.508 119.451C101.023 120.122 100.396 120.686 99.6266 121.144C98.8766 121.59 98.1263 121.858 97.3756 121.948C96.6153 122.045 95.906 122.005 95.2478 121.829C94.5798 121.66 94.0162 121.388 93.557 121.015L94.5157 119.634C95.1282 120.087 95.8123 120.34 96.5682 120.391C97.3299 120.453 98.0858 120.26 98.8358 119.814C99.5956 119.362 100.165 118.779 100.545 118.066C100.915 117.358 101.075 116.584 101.024 115.744C100.972 114.904 100.692 114.055 100.182 113.198C99.678 112.351 99.0692 111.704 98.3557 111.258C97.6421 110.812 96.886 110.583 96.0872 110.57C95.2786 110.563 94.4945 110.786 93.7347 111.237C92.9847 111.684 92.4519 112.251 92.1363 112.94C91.8265 113.638 91.7246 114.365 91.8305 115.119L90.1592 115.302C90.0507 114.721 90.0812 114.096 90.251 113.428C90.411 112.766 90.7147 112.124 91.1622 111.502C91.6 110.885 92.1939 110.354 92.9439 109.908ZM77.3881 116.363C78.2643 116.179 79.1177 116.162 79.9482 116.312C80.7811 116.473 81.5465 116.781 82.2444 117.236C82.9312 117.694 83.517 118.278 84.0018 118.986C84.4888 119.706 84.8291 120.527 85.0225 121.447C85.2182 122.379 85.2368 123.267 85.0783 124.111C84.9197 124.954 84.6182 125.724 84.1737 126.42C83.7182 127.118 83.1459 127.701 82.4569 128.17C81.7569 128.642 80.9632 128.97 80.0759 129.157C79.1886 129.343 78.3341 129.355 77.5123 129.192C76.6818 129.042 75.9231 128.738 75.2363 128.28C74.5407 127.836 73.9505 127.259 73.4658 126.55C72.9699 125.844 72.6241 125.025 72.4284 124.093C72.235 123.172 72.222 122.283 72.3893 121.426C72.5478 120.582 72.8549 119.811 73.3104 119.113C73.7549 118.418 74.326 117.829 75.0237 117.346C75.7127 116.877 76.5008 116.55 77.3881 116.363ZM77.7062 117.877C77.0185 118.022 76.4175 118.275 75.9031 118.638C75.3911 119.012 74.9764 119.464 74.6593 119.994C74.3333 120.537 74.1212 121.126 74.0229 121.76C73.9158 122.408 73.9333 123.07 74.0755 123.747C74.2176 124.423 74.4669 125.031 74.8233 125.57C75.1686 126.111 75.5986 126.56 76.1133 126.915C76.6192 127.283 77.1806 127.53 77.7975 127.655C78.4168 127.791 79.0702 127.787 79.7579 127.643C80.4344 127.501 81.0287 127.243 81.5408 126.869C82.0552 126.506 82.4753 126.053 82.8013 125.51C83.1184 124.98 83.3317 124.396 83.4412 123.76C83.5506 123.123 83.5342 122.466 83.3921 121.79C83.2499 121.113 82.9995 120.5 82.6408 119.95C82.2843 119.411 81.8532 118.957 81.3473 118.589C80.8326 118.234 80.2656 117.988 79.6464 117.852C79.0295 117.726 78.3827 117.735 77.7062 117.877ZM65.1615 118.664L63.5217 131.222L62.0045 131.024L58.1753 123.718L58.9507 123.819L53.4075 129.901L51.8904 129.703L53.5302 117.145L55.1991 117.363L53.8322 127.831L53.2664 127.568L58.7942 121.604L58.929 121.622L62.6894 128.799L62.1426 128.916L63.5095 118.448L65.1615 118.664ZM47.232 115.906L41.9919 127.437L37.9216 125.587C37.1581 125.24 36.553 124.79 36.1065 124.239C35.66 123.688 35.3988 123.071 35.3228 122.389C35.2364 121.702 35.3574 120.998 35.6856 120.276C36.0138 119.553 36.465 118.999 37.039 118.613C37.5979 118.232 38.2343 118.023 38.9481 117.986C39.6469 117.955 40.3832 118.116 41.157 118.467L43.7107 119.628L45.7153 115.217L47.232 115.906ZM43.0777 121.021L40.4776 119.839C40.0133 119.628 39.571 119.533 39.1508 119.554C38.7306 119.574 38.3526 119.708 38.0169 119.953C37.6811 120.199 37.4147 120.539 37.2178 120.972C37.0162 121.416 36.9355 121.84 36.9759 122.244C37.0116 122.658 37.1598 123.031 37.4206 123.361C37.6813 123.691 38.0439 123.962 38.5082 124.173L41.1083 125.354L43.0777 121.021ZM35.9479 110.724L24.371 117.579L22.8528 116.32L27.4404 103.673L28.8147 104.812L27.7146 107.764L31.8767 111.214L34.5736 109.585L35.9479 110.724ZM30.4946 112.056L27.1439 109.278L24.5654 116.172L24.1989 115.868L30.4946 112.056ZM23.6772 100.024L13.1242 107.027L12.3534 105.865L16.8578 94.1442L17.2622 94.6307L8.67821 100.327L7.74765 98.9245L18.3006 91.9219L19.0714 93.0834L14.4916 104.814L14.1153 104.37L22.756 98.6361L23.6772 100.024ZM13.9971 83.3553L8.5157 85.242L3.44908 91.6245L2.83494 89.8402L7.0891 84.4925L7.31041 85.1355L0.671614 83.5551L0.0574721 81.7709L7.96795 83.6507L13.4493 81.764L13.9971 83.3553Z" fill="black"/>
<defs>
<clipPath id="bgblur_0_9041_14_clip_path" transform="translate(50 50)"><path d="M12.1395 52.9559L-0.000151697 49.346L0.474711 47.7491L12.6143 51.359L12.1395 52.9559ZM15.7636 43.2302L5.9079 38.0483L4.3098 41.0878L2.95558 40.3757L6.91127 32.8523L8.26549 33.5643L6.69113 36.5586L16.5469 41.7406L15.7636 43.2302ZM29.787 25.6068C29.0944 26.1742 28.3539 26.5758 27.5654 26.8116C26.7785 27.0314 25.9791 27.0929 25.1673 26.9962C24.3642 26.8922 23.593 26.6304 22.8535 26.2107C22.114 25.7909 21.4462 25.2172 20.85 24.4896C20.2467 23.7532 19.812 22.9812 19.5459 22.1736C19.2798 21.366 19.1748 20.5583 19.2309 19.7505C19.287 18.9427 19.5082 18.1754 19.8944 17.4487C20.2735 16.7132 20.8093 16.0618 21.5019 15.4944C22.1769 14.9413 22.8788 14.5641 23.6075 14.3626C24.345 14.154 25.0522 14.0874 25.7293 14.1627C26.4151 14.2308 27.0129 14.415 27.5226 14.7153L26.7808 16.2241C26.1076 15.8673 25.3934 15.7198 24.6383 15.7817C23.876 15.8349 23.1573 16.138 22.4823 16.691C21.7985 17.2513 21.3221 17.9126 21.0531 18.6751C20.7928 19.4305 20.7507 20.2195 20.9267 21.0423C21.1027 21.8651 21.5067 22.6623 22.1387 23.4338C22.7636 24.1965 23.4621 24.745 24.2342 25.0794C25.0064 25.4138 25.7883 25.5277 26.5801 25.4211C27.3806 25.3074 28.1227 24.9704 28.8065 24.4101C29.4816 23.8571 29.9237 23.2164 30.133 22.4883C30.335 21.7513 30.3273 21.0177 30.11 20.2874L31.7352 19.8569C31.9293 20.4158 31.9923 21.0381 31.9242 21.724C31.8649 22.4026 31.6604 23.0829 31.3108 23.7649C30.9699 24.4398 30.462 25.0537 29.787 25.6068ZM44.2055 16.9001C43.3666 17.213 42.5254 17.3574 41.6818 17.3334C40.8343 17.2988 40.0314 17.1084 39.2733 16.7622C38.5258 16.412 37.8594 15.9227 37.2742 15.2943C36.685 14.6552 36.2261 13.895 35.8973 13.0137C35.5646 12.1217 35.4136 11.2466 35.4442 10.3885C35.4749 9.53028 35.6581 8.72411 35.9936 7.96993C36.3398 7.21179 36.8185 6.54939 37.4297 5.98273C38.0515 5.4121 38.7871 4.96835 39.6366 4.65148C40.4861 4.3346 41.3293 4.19546 42.1662 4.23406C43.0098 4.25808 43.8054 4.44517 44.5529 4.79533C45.3071 5.13091 45.9768 5.61292 46.562 6.24136C47.1578 6.86583 47.6221 7.62405 47.9548 8.51602C48.2835 9.39737 48.4292 10.2744 48.3919 11.1472C48.3612 12.0053 48.1728 12.8135 47.8266 13.5716C47.491 14.3258 47.0143 14.9935 46.3965 15.5748C45.7853 16.1414 45.055 16.5832 44.2055 16.9001ZM43.6649 15.4506C44.3232 15.2051 44.8796 14.8645 45.334 14.4288C45.7845 13.9826 46.1269 13.4738 46.3614 12.9025C46.6025 12.3167 46.7242 11.7027 46.7267 11.0607C46.7358 10.4041 46.6195 9.75195 46.3779 9.10422C46.1363 8.45648 45.799 7.89281 45.3661 7.4132C44.9438 6.92963 44.4517 6.55073 43.8897 6.2765C43.3344 5.98769 42.7425 5.82749 42.1138 5.79588C41.4811 5.75366 40.8356 5.85534 40.1772 6.10092C39.5295 6.34254 38.9804 6.68646 38.53 7.1327C38.0756 7.56832 37.7278 8.07907 37.4867 8.66495C37.2522 9.23625 37.1285 9.84488 37.1154 10.4908C37.1024 11.1368 37.2166 11.7837 37.4583 12.4314C37.6999 13.0791 38.0391 13.6481 38.476 14.1383C38.9089 14.618 39.403 15.0022 39.9583 15.291C40.5203 15.5652 41.1176 15.7234 41.7502 15.7657C42.3789 15.7973 43.0171 15.6922 43.6649 15.4506ZM55.9516 12.8021L55.7271 0.139079L57.2568 0.111958L62.1187 6.77582L61.3368 6.78968L65.9255 -0.0417317L67.4552 -0.0688534L67.6797 12.5942L65.997 12.624L65.8099 2.06865L66.4081 2.24507L61.8174 8.95751L61.6814 8.95992L56.9066 2.41353L57.4302 2.21722L57.6173 12.7726L55.9516 12.8021ZM74.0944 12.8889L77.5448 0.702949L81.8467 1.92099C82.6536 2.14947 83.3192 2.50282 83.8434 2.98106C84.3676 3.45929 84.7184 4.02979 84.8959 4.69254C85.0843 5.35839 85.0705 6.07297 84.8543 6.8363C84.6382 7.59962 84.2754 8.21541 83.7659 8.68365C83.2704 9.14407 82.6725 9.44595 81.9723 9.58928C81.2861 9.72479 80.5341 9.67677 79.7162 9.4452L77.0173 8.68103L75.6974 13.3428L74.0944 12.8889ZM77.4342 7.2089L80.1821 7.98697C80.6728 8.12591 81.1244 8.15363 81.5367 8.07014C81.9491 7.98665 82.3028 7.79822 82.5979 7.50485C82.8929 7.21147 83.1053 6.83579 83.235 6.37779C83.3678 5.90889 83.3839 5.47763 83.2833 5.08401C83.1858 4.67949 82.9834 4.33359 82.676 4.04632C82.3687 3.75906 81.9696 3.54595 81.4789 3.40701L78.7309 2.62895L77.4342 7.2089ZM86.0287 16.3192L96.4543 7.81555L98.1432 8.83358L95.4924 22.0237L93.9637 21.1022L94.6114 18.0189L89.9814 15.2281L87.5575 17.2407L86.0287 16.3192ZM91.2226 14.1898L94.9499 16.4365L96.4718 9.23543L96.8795 9.48116L91.2226 14.1898ZM99.7597 25.0694L109.14 16.5593L110.076 17.5917L107.386 29.857L106.913 29.4369L114.543 22.5146L115.673 23.761L106.294 32.2711L105.357 31.2387L108.121 18.9529L108.559 19.3353L100.879 26.3032L99.7597 25.0694ZM111.704 40.1614L116.924 37.6415L121.203 30.7061L122.023 32.4055L118.429 38.2175L118.134 37.6051L124.913 38.3916L125.733 40.091L117.656 39.1572L112.435 41.6771L111.704 40.1614ZM118.423 64.0487L120.463 64.0998L120.422 65.7483L118.382 65.6972L118.423 64.0487ZM114.514 85.5244L125.965 90.9364L125.253 92.4426L113.802 87.0307L114.514 85.5244ZM109.457 94.5873L118.415 101.201L120.455 98.4386L121.685 99.3474L116.637 106.186L115.406 105.277L117.415 102.555L108.457 95.9413L109.457 94.5873ZM92.9439 109.908C93.7134 109.45 94.5056 109.164 95.3204 109.048C96.1313 108.948 96.9309 109.007 97.7192 109.224C98.4978 109.446 99.2213 109.82 99.8898 110.346C100.558 110.871 101.133 111.538 101.614 112.347C102.101 113.165 102.415 113.993 102.558 114.831C102.7 115.67 102.684 116.484 102.507 117.274C102.331 118.065 101.998 118.79 101.508 119.451C101.023 120.122 100.396 120.686 99.6266 121.144C98.8766 121.59 98.1263 121.858 97.3756 121.948C96.6153 122.045 95.906 122.005 95.2478 121.829C94.5798 121.66 94.0162 121.388 93.557 121.015L94.5157 119.634C95.1282 120.087 95.8123 120.34 96.5682 120.391C97.3299 120.453 98.0858 120.26 98.8358 119.814C99.5956 119.362 100.165 118.779 100.545 118.066C100.915 117.358 101.075 116.584 101.024 115.744C100.972 114.904 100.692 114.055 100.182 113.198C99.678 112.351 99.0692 111.704 98.3557 111.258C97.6421 110.812 96.886 110.583 96.0872 110.57C95.2786 110.563 94.4945 110.786 93.7347 111.237C92.9847 111.684 92.4519 112.251 92.1363 112.94C91.8265 113.638 91.7246 114.365 91.8305 115.119L90.1592 115.302C90.0507 114.721 90.0812 114.096 90.251 113.428C90.411 112.766 90.7147 112.124 91.1622 111.502C91.6 110.885 92.1939 110.354 92.9439 109.908ZM77.3881 116.363C78.2643 116.179 79.1177 116.162 79.9482 116.312C80.7811 116.473 81.5465 116.781 82.2444 117.236C82.9312 117.694 83.517 118.278 84.0018 118.986C84.4888 119.706 84.8291 120.527 85.0225 121.447C85.2182 122.379 85.2368 123.267 85.0783 124.111C84.9197 124.954 84.6182 125.724 84.1737 126.42C83.7182 127.118 83.1459 127.701 82.4569 128.17C81.7569 128.642 80.9632 128.97 80.0759 129.157C79.1886 129.343 78.3341 129.355 77.5123 129.192C76.6818 129.042 75.9231 128.738 75.2363 128.28C74.5407 127.836 73.9505 127.259 73.4658 126.55C72.9699 125.844 72.6241 125.025 72.4284 124.093C72.235 123.172 72.222 122.283 72.3893 121.426C72.5478 120.582 72.8549 119.811 73.3104 119.113C73.7549 118.418 74.326 117.829 75.0237 117.346C75.7127 116.877 76.5008 116.55 77.3881 116.363ZM77.7062 117.877C77.0185 118.022 76.4175 118.275 75.9031 118.638C75.3911 119.012 74.9764 119.464 74.6593 119.994C74.3333 120.537 74.1212 121.126 74.0229 121.76C73.9158 122.408 73.9333 123.07 74.0755 123.747C74.2176 124.423 74.4669 125.031 74.8233 125.57C75.1686 126.111 75.5986 126.56 76.1133 126.915C76.6192 127.283 77.1806 127.53 77.7975 127.655C78.4168 127.791 79.0702 127.787 79.7579 127.643C80.4344 127.501 81.0287 127.243 81.5408 126.869C82.0552 126.506 82.4753 126.053 82.8013 125.51C83.1184 124.98 83.3317 124.396 83.4412 123.76C83.5506 123.123 83.5342 122.466 83.3921 121.79C83.2499 121.113 82.9995 120.5 82.6408 119.95C82.2843 119.411 81.8532 118.957 81.3473 118.589C80.8326 118.234 80.2656 117.988 79.6464 117.852C79.0295 117.726 78.3827 117.735 77.7062 117.877ZM65.1615 118.664L63.5217 131.222L62.0045 131.024L58.1753 123.718L58.9507 123.819L53.4075 129.901L51.8904 129.703L53.5302 117.145L55.1991 117.363L53.8322 127.831L53.2664 127.568L58.7942 121.604L58.929 121.622L62.6894 128.799L62.1426 128.916L63.5095 118.448L65.1615 118.664ZM47.232 115.906L41.9919 127.437L37.9216 125.587C37.1581 125.24 36.553 124.79 36.1065 124.239C35.66 123.688 35.3988 123.071 35.3228 122.389C35.2364 121.702 35.3574 120.998 35.6856 120.276C36.0138 119.553 36.465 118.999 37.039 118.613C37.5979 118.232 38.2343 118.023 38.9481 117.986C39.6469 117.955 40.3832 118.116 41.157 118.467L43.7107 119.628L45.7153 115.217L47.232 115.906ZM43.0777 121.021L40.4776 119.839C40.0133 119.628 39.571 119.533 39.1508 119.554C38.7306 119.574 38.3526 119.708 38.0169 119.953C37.6811 120.199 37.4147 120.539 37.2178 120.972C37.0162 121.416 36.9355 121.84 36.9759 122.244C37.0116 122.658 37.1598 123.031 37.4206 123.361C37.6813 123.691 38.0439 123.962 38.5082 124.173L41.1083 125.354L43.0777 121.021ZM35.9479 110.724L24.371 117.579L22.8528 116.32L27.4404 103.673L28.8147 104.812L27.7146 107.764L31.8767 111.214L34.5736 109.585L35.9479 110.724ZM30.4946 112.056L27.1439 109.278L24.5654 116.172L24.1989 115.868L30.4946 112.056ZM23.6772 100.024L13.1242 107.027L12.3534 105.865L16.8578 94.1442L17.2622 94.6307L8.67821 100.327L7.74765 98.9245L18.3006 91.9219L19.0714 93.0834L14.4916 104.814L14.1153 104.37L22.756 98.6361L23.6772 100.024ZM13.9971 83.3553L8.5157 85.242L3.44908 91.6245L2.83494 89.8402L7.0891 84.4925L7.31041 85.1355L0.671614 83.5551L0.0574721 81.7709L7.96795 83.6507L13.4493 81.764L13.9971 83.3553Z"/>
</clipPath></defs>
</svg>
