<svg width="30" height="26" viewBox="0 0 30 26" fill="none" xmlns="http://www.w3.org/2000/svg">
<path fill-rule="evenodd" clip-rule="evenodd" d="M13.0049 26.0064C5.83103 26.0064 -0.000244141 20.1744 -0.000244141 13.0012C-0.000244141 5.82806 5.83103 -0.00390625 13.0049 -0.00390625C16.2942 -0.00390625 19.3815 1.19058 21.7864 3.39548C20.9848 3.87075 20.2121 4.39301 19.4722 4.95953C17.6414 3.48095 15.3582 2.67616 13.0049 2.67989C7.31965 2.67989 2.68355 7.31598 2.68355 13.0012C2.68355 18.6865 7.31965 23.3219 13.0049 23.3219C20.9151 23.3219 25.6114 14.8663 22.2093 8.29248C22.8785 7.66991 23.5716 7.07337 24.2868 6.5042C25.4253 8.46964 26.01 10.6988 26.01 13.0005C26.01 20.1744 20.1788 26.0064 13.0049 26.0064Z" fill="white"/>
<path fill-rule="evenodd" clip-rule="evenodd" d="M13.3468 19.6865C13.2781 19.6855 13.2113 19.6641 13.1547 19.625C13.0982 19.586 13.0545 19.531 13.0292 19.4671C13.0049 19.4187 10.9066 14.0013 7.66156 11.9514C7.02695 11.5611 6.53905 11.1465 6.73421 10.2192C6.92937 9.31673 7.53907 8.80392 8.63736 8.56031C10.589 8.14508 12.688 11.1708 13.4679 12.4151C16.2016 8.43851 21.6667 2.192 29.6212 1.4598C30.0046 1.41482 30.1472 1.98369 29.7922 2.14286C29.6704 2.19131 18.2999 7.38866 13.688 19.4914C13.6535 19.5512 13.6038 19.6008 13.5438 19.6351C13.4839 19.6694 13.4159 19.6871 13.3468 19.6865Z" fill="white"/>
</svg>
