<svg width="38" height="32" viewBox="0 0 38 32" fill="none" xmlns="http://www.w3.org/2000/svg">
<path fill-rule="evenodd" clip-rule="evenodd" d="M19.4779 0.661052C16.4239 0.558572 13.4148 1.41643 10.8739 3.11385C8.01712 5.0238 5.9249 7.87957 4.965 11.1793C4.70507 11.1475 4.3938 11.1615 4.0242 11.2661C2.64427 11.6581 1.60687 12.7883 1.1402 13.7842C0.53447 15.082 0.279203 16.7989 0.54847 18.5703C0.81587 20.3367 1.56207 21.7927 2.4954 22.6966C3.43154 23.601 4.48854 23.895 5.53854 23.6742C7.10187 23.3406 7.877 23.0909 7.65814 21.6349L6.5988 14.5743C6.70639 12.6526 7.25928 10.7822 8.21383 9.11092C9.16838 7.43962 10.4984 6.01313 12.0989 4.94412C14.2559 3.50111 16.811 2.77075 19.4048 2.8558C21.9985 2.94085 24.5003 3.83704 26.5581 5.41825C27.9789 6.50754 29.1472 7.89126 29.9829 9.47449C30.8186 11.0577 31.302 12.803 31.3998 14.5906L30.6587 19.5293C29.8547 21.7335 28.4422 23.6645 26.5851 25.0984C24.7281 26.5323 22.5025 27.4103 20.1667 27.6306H17.0092C16.816 27.6302 16.6246 27.6679 16.446 27.7417C16.2674 27.8154 16.1051 27.9236 15.9685 28.0602C15.8318 28.1968 15.7235 28.359 15.6496 28.5375C15.5758 28.7161 15.538 28.9074 15.5383 29.1006V29.8762C15.5379 30.0695 15.5757 30.2609 15.6495 30.4395C15.7233 30.6181 15.8316 30.7804 15.9683 30.917C16.105 31.0536 16.2673 31.1619 16.4459 31.2357C16.6245 31.3094 16.816 31.3471 17.0092 31.3467H20.9903C21.1834 31.347 21.3745 31.3092 21.5529 31.2354C21.7312 31.1616 21.8933 31.0533 22.0296 30.9167C22.166 30.7801 22.2741 30.6179 22.3476 30.4394C22.4211 30.261 22.4586 30.0697 22.458 29.8767V29.4707C26.0349 28.5949 29.151 26.4047 31.1865 23.3359L32.4619 23.6742C33.4998 23.9435 34.5694 23.6005 35.5051 22.6966C36.4384 21.7922 37.1841 20.3367 37.452 18.5703C37.7227 16.7984 37.4595 15.0848 36.8612 13.7842C36.2606 12.4836 35.366 11.6576 34.3333 11.3613C33.9007 11.2367 33.4312 11.1909 33.0285 11.1793C32.1616 8.19495 30.3649 5.56523 27.8998 3.67292C25.4767 1.81272 22.5311 0.759331 19.4779 0.661052Z" fill="black"/>
<path fill-rule="evenodd" clip-rule="evenodd" d="M24.138 13.3633C24.6437 13.3639 25.1285 13.5651 25.4861 13.9228C25.8437 14.2804 26.0448 14.7653 26.0452 15.271C26.0444 15.7767 25.8431 16.2614 25.4855 16.619C25.128 16.9766 24.6432 17.1779 24.1375 17.1787C23.6313 17.1789 23.1457 16.978 22.7874 16.6203C22.4292 16.2626 22.2276 15.7773 22.227 15.271C22.2271 15.0203 22.2766 14.772 22.3727 14.5404C22.4688 14.3088 22.6096 14.0984 22.787 13.9212C22.9644 13.744 23.175 13.6034 23.4067 13.5076C23.6384 13.4118 23.8868 13.3626 24.1375 13.3628L24.138 13.3633ZM19 13.3633C19.3772 13.3635 19.746 13.4755 20.0596 13.6852C20.3732 13.8949 20.6175 14.1929 20.7618 14.5415C20.9061 14.8901 20.9437 15.2736 20.87 15.6436C20.7964 16.0136 20.6146 16.3534 20.3479 16.6202C20.0811 16.8869 19.7412 17.0685 19.3712 17.1421C19.0012 17.2157 18.6176 17.1779 18.2691 17.0336C17.9206 16.8892 17.6226 16.6448 17.413 16.3311C17.2034 16.0175 17.0914 15.6487 17.0913 15.2715C17.0911 15.0208 17.1403 14.7725 17.2361 14.5408C17.3319 14.3091 17.4725 14.0986 17.6498 13.9213C17.8271 13.744 18.0376 13.6034 18.2693 13.5076C18.501 13.4118 18.7493 13.363 19 13.3633ZM13.8634 13.3633C14.1175 13.3577 14.3701 13.4029 14.6065 13.4962C14.8429 13.5895 15.0582 13.7292 15.2399 13.9069C15.4216 14.0846 15.5659 14.2968 15.6645 14.531C15.763 14.7653 15.8138 15.0169 15.8138 15.271C15.8138 15.5252 15.763 15.7767 15.6645 16.011C15.5659 16.2452 15.4216 16.4574 15.2399 16.6352C15.0582 16.8129 14.8429 16.9525 14.6065 17.0458C14.3701 17.1392 14.1175 17.1844 13.8634 17.1787C13.3625 17.1709 12.8848 16.9665 12.5334 16.6095C12.182 16.2525 11.985 15.7717 11.985 15.2708C11.985 14.7699 12.182 14.289 12.5334 13.9321C12.8848 13.5751 13.3625 13.3711 13.8634 13.3633ZM19 5.16675C13.4047 5.16675 8.89572 9.52728 8.89572 15.2705C8.89572 18.029 9.93872 20.4669 11.6379 22.2556L11.0349 24.9585C10.8361 25.848 11.4531 26.4463 12.2529 26.0011L14.8919 24.5287C16.1886 25.0902 17.587 25.3783 19 25.3753C24.5972 25.3753 29.1033 21.0175 29.1033 15.2719C29.1033 9.52821 24.5972 5.16768 19 5.16768V5.16675Z" fill="black"/>
</svg>
